<?xml version="1.0" encoding="UTF-8" standalone="no"?>
<!-- Created with Inkscape (http://www.inkscape.org/) -->

<svg
   xmlns:dc="http://purl.org/dc/elements/1.1/"
   xmlns:cc="http://creativecommons.org/ns#"
   xmlns:rdf="http://www.w3.org/1999/02/22-rdf-syntax-ns#"
   xmlns:svg="http://www.w3.org/2000/svg"
   xmlns="http://www.w3.org/2000/svg"
   xmlns:sodipodi="http://sodipodi.sourceforge.net/DTD/sodipodi-0.dtd"
   xmlns:inkscape="http://www.inkscape.org/namespaces/inkscape"
   width="210mm"
   height="297mm"
   viewBox="0 0 210 297"
   version="1.1"
   id="svg8"
   inkscape:version="0.92.2 (5c3e80d, 2017-08-06)"
   sodipodi:docname="emiia81.svg">
  <defs
     id="defs2">
    <pattern
       y="0"
       x="0"
       height="6"
       width="6"
       patternUnits="userSpaceOnUse"
       id="EMFhbasepattern" />
  </defs>
  <sodipodi:namedview
     id="base"
     pagecolor="#ffffff"
     bordercolor="#666666"
     borderopacity="1.0"
     inkscape:pageopacity="0.0"
     inkscape:pageshadow="2"
     inkscape:zoom="0.35"
     inkscape:cx="-98.571429"
     inkscape:cy="560"
     inkscape:document-units="mm"
     inkscape:current-layer="layer1"
     showgrid="false"
     inkscape:window-width="1366"
     inkscape:window-height="745"
     inkscape:window-x="-8"
     inkscape:window-y="-8"
     inkscape:window-maximized="1" />
  <metadata
     id="metadata5">
    <rdf:RDF>
      <cc:Work
         rdf:about="">
        <dc:format>image/svg+xml</dc:format>
        <dc:type
           rdf:resource="http://purl.org/dc/dcmitype/StillImage" />
        <dc:title></dc:title>
      </cc:Work>
    </rdf:RDF>
  </metadata>
  <g
     inkscape:label="Layer 1"
     inkscape:groupmode="layer"
     id="layer1">
    <path
       id="path818"
       d="m 94.87779,47.028008 c 0,0.336925 -0.263607,0.601613 -0.5991,0.601613 -0.359462,0 -0.623066,-0.264688 -0.623066,-0.601613 0,-0.336911 0.263604,-0.625678 0.623066,-0.625678 0.335493,0 0.5991,0.288767 0.5991,0.625678 z"
       style="fill:#4a99d9;fill-opacity:1;fill-rule:nonzero;stroke:none;stroke-width:0.63500464"
       inkscape:connector-curvature="0" />
    <path
       id="path820"
       d="m 86.706063,53.357054 c 0,0.336911 -0.263604,0.601613 -0.623064,0.601613 -0.335496,0 -0.599099,-0.264702 -0.599099,-0.601613 0,-0.336911 0.263603,-0.625692 0.599099,-0.625692 0.35946,0 0.623064,0.288781 0.623064,0.625692 z"
       style="fill:#4a99d9;fill-opacity:1;fill-rule:nonzero;stroke:none;stroke-width:0.63500464"
       inkscape:connector-curvature="0" />
    <path
       id="path822"
       d="m 94.87779,52.009423 c 0,0.336911 -0.263607,0.601627 -0.5991,0.601627 -0.359462,0 -0.623066,-0.264716 -0.623066,-0.601627 0,-0.360962 0.263604,-0.625691 0.623066,-0.625691 0.335493,0 0.5991,0.264729 0.5991,0.625691 z"
       style="fill:#4a99d9;fill-opacity:1;fill-rule:nonzero;stroke:none;stroke-width:0.63500464"
       inkscape:connector-curvature="0" />
    <path
       id="path824"
       d="m 89.413996,49.434488 c 0,0.336911 -0.263603,0.625678 -0.5991,0.625678 -0.335496,0 -0.623064,-0.288767 -0.623064,-0.625678 0,-0.336884 0.287568,-0.625678 0.623064,-0.625678 0.335497,0 0.5991,0.288794 0.5991,0.625678 z"
       style="fill:#4a99d9;fill-opacity:1;fill-rule:nonzero;stroke:none;stroke-width:0.63500464"
       inkscape:connector-curvature="0" />
    <path
       id="path826"
       d="m 101.63564,47.028008 c 0,0.336925 -0.28757,0.601613 -0.62307,0.601613 -0.33549,0 -0.5991,-0.264688 -0.5991,-0.601613 0,-0.336911 0.26361,-0.625678 0.5991,-0.625678 0.3355,0 0.62307,0.288767 0.62307,0.625678 z"
       style="fill:#4a99d9;fill-opacity:1;fill-rule:nonzero;stroke:none;stroke-width:0.63500464"
       inkscape:connector-curvature="0" />
    <path
       id="path828"
       d="m 103.81636,53.597704 c 0,0.360963 -0.2636,0.625679 -0.5991,0.625679 -0.35946,0 -0.62306,-0.264716 -0.62306,-0.625679 0,-0.336911 0.2636,-0.601613 0.62306,-0.601613 0.3355,0 0.5991,0.264702 0.5991,0.601613 z"
       style="fill:#4a99d9;fill-opacity:1;fill-rule:nonzero;stroke:none;stroke-width:0.63500464"
       inkscape:connector-curvature="0" />
    <path
       id="path830"
       d="m 108.36952,54.584345 c 0,0.336925 -0.2636,0.625692 -0.62306,0.625692 -0.3355,0 -0.5991,-0.288767 -0.5991,-0.625692 0,-0.336884 0.2636,-0.625678 0.5991,-0.625678 0.35946,0 0.62306,0.288794 0.62306,0.625678 z"
       style="fill:#4a99d9;fill-opacity:1;fill-rule:nonzero;stroke:none;stroke-width:0.63500464"
       inkscape:connector-curvature="0" />
    <path
       id="path832"
       d="m 102.92969,56.244821 c 0,0.36099 -0.28757,0.625692 -0.62306,0.625692 -0.3355,0 -0.62307,-0.264702 -0.62307,-0.625692 0,-0.336883 0.28757,-0.601613 0.62307,-0.601613 0.33549,0 0.62306,0.26473 0.62306,0.601613 z"
       style="fill:#4a99d9;fill-opacity:1;fill-rule:nonzero;stroke:none;stroke-width:0.63500464"
       inkscape:connector-curvature="0" />
    <path
       id="path834"
       d="m 105.03852,58.314404 c 0,0.336897 -0.2636,0.601613 -0.5991,0.601613 -0.33549,0 -0.62306,-0.264716 -0.62306,-0.601613 0,-0.336911 0.28757,-0.625678 0.62306,-0.625678 0.3355,0 0.5991,0.288767 0.5991,0.625678 z"
       style="fill:#4a99d9;fill-opacity:1;fill-rule:nonzero;stroke:none;stroke-width:0.63500464"
       inkscape:connector-curvature="0" />
    <path
       id="path836"
       d="m 104.03204,60.600572 c 0,0.336884 -0.26361,0.625678 -0.62307,0.625678 -0.33549,0 -0.5991,-0.288794 -0.5991,-0.625678 0,-0.336911 0.26361,-0.625692 0.5991,-0.625692 0.35946,0 0.62307,0.288781 0.62307,0.625692 z"
       style="fill:#4a99d9;fill-opacity:1;fill-rule:nonzero;stroke:none;stroke-width:0.63500464"
       inkscape:connector-curvature="0" />
    <path
       id="path838"
       d="m 105.2542,61.731603 c 0,0.336911 -0.2636,0.625678 -0.5991,0.625678 -0.35946,0 -0.62306,-0.288767 -0.62306,-0.625678 0,-0.336911 0.2636,-0.625678 0.62306,-0.625678 0.3355,0 0.5991,0.288767 0.5991,0.625678 z"
       style="fill:#4a99d9;fill-opacity:1;fill-rule:nonzero;stroke:none;stroke-width:0.63500464"
       inkscape:connector-curvature="0" />
    <path
       id="path840"
       d="m 107.14736,63.72899 c 0,0.336898 -0.28757,0.601613 -0.62307,0.601613 -0.33549,0 -0.62306,-0.264715 -0.62306,-0.601613 0,-0.336911 0.28757,-0.625678 0.62306,-0.625678 0.3355,0 0.62307,0.288767 0.62307,0.625678 z"
       style="fill:#4a99d9;fill-opacity:1;fill-rule:nonzero;stroke:none;stroke-width:0.63500464"
       inkscape:connector-curvature="0" />
    <path
       id="path842"
       d="m 108.36952,65.581973 c 0,0.336911 -0.2636,0.601614 -0.62306,0.601614 -0.3355,0 -0.5991,-0.264703 -0.5991,-0.601614 0,-0.336911 0.2636,-0.625678 0.5991,-0.625678 0.35946,0 0.62306,0.288767 0.62306,0.625678 z"
       style="fill:#4a99d9;fill-opacity:1;fill-rule:nonzero;stroke:none;stroke-width:0.63500464"
       inkscape:connector-curvature="0" />
    <path
       id="path844"
       d="m 107.387,61.370641 c 0,0.336883 -0.28757,0.625678 -0.62307,0.625678 -0.33549,0 -0.5991,-0.288795 -0.5991,-0.625678 0,-0.336911 0.26361,-0.625692 0.5991,-0.625692 0.3355,0 0.62307,0.288781 0.62307,0.625692 z"
       style="fill:#4a99d9;fill-opacity:1;fill-rule:nonzero;stroke:none;stroke-width:0.63500464"
       inkscape:connector-curvature="0" />
    <path
       id="path846"
       d="m 109.59168,62.622011 c 0,0.336883 -0.2636,0.601613 -0.59909,0.601613 -0.3355,0 -0.62307,-0.26473 -0.62307,-0.601613 0,-0.36099 0.28757,-0.625692 0.62307,-0.625692 0.33549,0 0.59909,0.264702 0.59909,0.625692 z"
       style="fill:#4a99d9;fill-opacity:1;fill-rule:nonzero;stroke:none;stroke-width:0.63500464"
       inkscape:connector-curvature="0" />
    <path
       id="path848"
       d="m 110.59817,63.849302 c 0,0.336925 -0.2636,0.625692 -0.5991,0.625692 -0.33549,0 -0.62306,-0.288767 -0.62306,-0.625692 0,-0.336911 0.28757,-0.625678 0.62306,-0.625678 0.3355,0 0.5991,0.288767 0.5991,0.625678 z"
       style="fill:#4a99d9;fill-opacity:1;fill-rule:nonzero;stroke:none;stroke-width:0.63500464"
       inkscape:connector-curvature="0" />
    <path
       id="path850"
       d="m 108.36952,67.651529 c 0,0.336924 -0.2636,0.60164 -0.62306,0.60164 -0.3355,0 -0.5991,-0.264716 -0.5991,-0.60164 0,-0.360963 0.2636,-0.625679 0.5991,-0.625679 0.35946,0 0.62306,0.264716 0.62306,0.625679 z"
       style="fill:#4a99d9;fill-opacity:1;fill-rule:nonzero;stroke:none;stroke-width:0.63500464"
       inkscape:connector-curvature="0" />
    <path
       id="path852"
       d="m 109.23222,68.758522 c 0,0.336911 -0.28756,0.601627 -0.62306,0.601627 -0.33549,0 -0.5991,-0.264716 -0.5991,-0.601627 0,-0.336898 0.26361,-0.625692 0.5991,-0.625692 0.3355,0 0.62306,0.288794 0.62306,0.625692 z"
       style="fill:#4a99d9;fill-opacity:1;fill-rule:nonzero;stroke:none;stroke-width:0.63500464"
       inkscape:connector-curvature="0" />
    <path
       id="path854"
       d="m 108.36952,70.226491 c 0,0.360963 -0.2636,0.625678 -0.62306,0.625678 -0.3355,0 -0.5991,-0.264715 -0.5991,-0.625678 0,-0.336911 0.2636,-0.60164 0.5991,-0.60164 0.35946,0 0.62306,0.264729 0.62306,0.60164 z"
       style="fill:#4a99d9;fill-opacity:1;fill-rule:nonzero;stroke:none;stroke-width:0.63500464"
       inkscape:connector-curvature="0" />
    <path
       id="path856"
       d="m 106.76393,68.999173 c 0,0.336911 -0.2636,0.625678 -0.5991,0.625678 -0.35946,0 -0.62306,-0.288767 -0.62306,-0.625678 0,-0.336898 0.2636,-0.625692 0.62306,-0.625692 0.3355,0 0.5991,0.288794 0.5991,0.625692 z"
       style="fill:#4a99d9;fill-opacity:1;fill-rule:nonzero;stroke:none;stroke-width:0.63500464"
       inkscape:connector-curvature="0" />
    <path
       id="path858"
       d="m 106.93168,66.809278 c 0,0.336911 -0.2636,0.625679 -0.62306,0.625679 -0.3355,0 -0.5991,-0.288768 -0.5991,-0.625679 0,-0.336897 0.2636,-0.625691 0.5991,-0.625691 0.35946,0 0.62306,0.288794 0.62306,0.625691 z"
       style="fill:#4a99d9;fill-opacity:1;fill-rule:nonzero;stroke:none;stroke-width:0.63500464"
       inkscape:connector-curvature="0" />
    <path
       id="path860"
       d="m 105.2542,68.373481 c 0,0.360989 -0.2636,0.625692 -0.5991,0.625692 -0.35946,0 -0.62306,-0.264703 -0.62306,-0.625692 0,-0.336884 0.2636,-0.601613 0.62306,-0.601613 0.3355,0 0.5991,0.264729 0.5991,0.601613 z"
       style="fill:#4a99d9;fill-opacity:1;fill-rule:nonzero;stroke:none;stroke-width:0.63500464"
       inkscape:connector-curvature="0" />
    <path
       id="path862"
       d="m 106.93168,70.659649 c 0,0.336911 -0.2636,0.625678 -0.62306,0.625678 -0.3355,0 -0.5991,-0.288767 -0.5991,-0.625678 0,-0.336925 0.2636,-0.625692 0.5991,-0.625692 0.35946,0 0.62306,0.288767 0.62306,0.625692 z"
       style="fill:#4a99d9;fill-opacity:1;fill-rule:nonzero;stroke:none;stroke-width:0.63500464"
       inkscape:connector-curvature="0" />
    <path
       id="path864"
       d="m 109.23222,70.852169 c 0,0.336898 -0.28756,0.625692 -0.62306,0.625692 -0.33549,0 -0.5991,-0.288794 -0.5991,-0.625692 0,-0.336911 0.26361,-0.625678 0.5991,-0.625678 0.3355,0 0.62306,0.288767 0.62306,0.625678 z"
       style="fill:#4a99d9;fill-opacity:1;fill-rule:nonzero;stroke:none;stroke-width:0.63500464"
       inkscape:connector-curvature="0" />
    <path
       id="path866"
       d="m 104.24771,71.477861 c 0,0.336884 -0.28756,0.601613 -0.62306,0.601613 -0.3355,0 -0.62307,-0.264729 -0.62307,-0.601613 0,-0.336911 0.28757,-0.625692 0.62307,-0.625692 0.3355,0 0.62306,0.288781 0.62306,0.625692 z"
       style="fill:#4a99d9;fill-opacity:1;fill-rule:nonzero;stroke:none;stroke-width:0.63500464"
       inkscape:connector-curvature="0" />
    <path
       id="path868"
       d="m 102.40248,76.988681 c 0,0.336911 -0.2636,0.601613 -0.62306,0.601613 -0.3355,0 -0.5991,-0.264702 -0.5991,-0.601613 0,-0.360963 0.2636,-0.625679 0.5991,-0.625679 0.35946,0 0.62306,0.264716 0.62306,0.625679 z"
       style="fill:#4a99d9;fill-opacity:1;fill-rule:nonzero;stroke:none;stroke-width:0.63500464"
       inkscape:connector-curvature="0" />
    <path
       id="path870"
       d="m 98.927704,78.215986 c 0,0.336911 -0.287568,0.625678 -0.623063,0.625678 -0.335496,0 -0.5991,-0.288767 -0.5991,-0.625678 0,-0.336898 0.263604,-0.625692 0.5991,-0.625692 0.335495,0 0.623063,0.288794 0.623063,0.625692 z"
       style="fill:#4a99d9;fill-opacity:1;fill-rule:nonzero;stroke:none;stroke-width:0.63500464"
       inkscape:connector-curvature="0" />
    <path
       id="path872"
       d="m 101.58771,80.574335 c 0,0.336911 -0.2636,0.625679 -0.62306,0.625679 -0.3355,0 -0.59911,-0.288768 -0.59911,-0.625679 0,-0.336897 0.26361,-0.601613 0.59911,-0.601613 0.35946,0 0.62306,0.264716 0.62306,0.601613 z"
       style="fill:#4a99d9;fill-opacity:1;fill-rule:nonzero;stroke:none;stroke-width:0.63500464"
       inkscape:connector-curvature="0" />
    <path
       id="path874"
       d="m 101.77942,83.173335 c 0,0.33691 -0.2636,0.62568 -0.5991,0.62568 -0.3355,0 -0.62306,-0.28877 -0.62306,-0.62568 0,-0.33691 0.28756,-0.625677 0.62306,-0.625677 0.3355,0 0.5991,0.288767 0.5991,0.625677 z"
       style="fill:#4a99d9;fill-opacity:1;fill-rule:nonzero;stroke:none;stroke-width:0.63500464"
       inkscape:connector-curvature="0" />
    <path
       id="path876"
       d="m 102.80987,86.734935 c 0,0.33689 -0.2636,0.62568 -0.5991,0.62568 -0.33549,0 -0.62306,-0.28879 -0.62306,-0.62568 0,-0.33691 0.28757,-0.60164 0.62306,-0.60164 0.3355,0 0.5991,0.26473 0.5991,0.60164 z"
       style="fill:#4a99d9;fill-opacity:1;fill-rule:nonzero;stroke:none;stroke-width:0.63500464"
       inkscape:connector-curvature="0" />
    <path
       id="path878"
       d="m 100.96465,84.063745 c 0,0.33688 -0.26361,0.62568 -0.59911,0.62568 -0.33549,0 -0.623059,-0.2888 -0.623059,-0.62568 0,-0.33691 0.287569,-0.62569 0.623059,-0.62569 0.3355,0 0.59911,0.28878 0.59911,0.62569 z"
       style="fill:#4a99d9;fill-opacity:1;fill-rule:nonzero;stroke:none;stroke-width:0.63500464"
       inkscape:connector-curvature="0" />
    <path
       id="path880"
       d="m 102.04302,87.553125 c 0,0.33692 -0.2636,0.62569 -0.5991,0.62569 -0.33549,0 -0.62306,-0.28877 -0.62306,-0.62569 0,-0.33691 0.28757,-0.62568 0.62306,-0.62568 0.3355,0 0.5991,0.28877 0.5991,0.62568 z"
       style="fill:#4a99d9;fill-opacity:1;fill-rule:nonzero;stroke:none;stroke-width:0.63500464"
       inkscape:connector-curvature="0" />
    <path
       id="path882"
       d="m 98.232747,92.390145 c 0,0.33691 -0.263602,0.60164 -0.599099,0.60164 -0.35946,0 -0.623064,-0.26473 -0.623064,-0.60164 0,-0.33689 0.263604,-0.62569 0.623064,-0.62569 0.335497,0 0.599099,0.2888 0.599099,0.62569 z"
       style="fill:#4a99d9;fill-opacity:1;fill-rule:nonzero;stroke:none;stroke-width:0.63500464"
       inkscape:connector-curvature="0" />
    <path
       id="path884"
       d="m 85.603721,89.285795 c 0,0.33691 -0.263604,0.62569 -0.599099,0.62569 -0.359461,0 -0.623064,-0.28878 -0.623064,-0.62569 0,-0.33691 0.263603,-0.62568 0.623064,-0.62568 0.335495,0 0.599099,0.28877 0.599099,0.62568 z"
       style="fill:#4a99d9;fill-opacity:1;fill-rule:nonzero;stroke:none;stroke-width:0.63500464"
       inkscape:connector-curvature="0" />
    <path
       id="path886"
       d="m 97.22626,93.617465 c 0,0.3369 -0.263603,0.62569 -0.5991,0.62569 -0.335496,0 -0.623064,-0.28879 -0.623064,-0.62569 0,-0.33691 0.287568,-0.62568 0.623064,-0.62568 0.335497,0 0.5991,0.28877 0.5991,0.62568 z"
       style="fill:#4a99d9;fill-opacity:1;fill-rule:nonzero;stroke:none;stroke-width:0.63500464"
       inkscape:connector-curvature="0" />
    <path
       id="path888"
       d="m 88.719039,93.617465 c 0,0.3369 -0.263603,0.62569 -0.623063,0.62569 -0.335496,0 -0.5991,-0.28879 -0.5991,-0.62569 0,-0.33691 0.263604,-0.62568 0.5991,-0.62568 0.35946,0 0.623063,0.28877 0.623063,0.62568 z"
       style="fill:#4a99d9;fill-opacity:1;fill-rule:nonzero;stroke:none;stroke-width:0.63500464"
       inkscape:connector-curvature="0" />
    <path
       id="path890"
       d="m 80.283713,103.02679 c 0,0.33691 -0.263604,0.60164 -0.599101,0.60164 -0.35946,0 -0.623064,-0.26473 -0.623064,-0.60164 0,-0.36097 0.263604,-0.6257 0.623064,-0.6257 0.335497,0 0.599101,0.26473 0.599101,0.6257 z"
       style="fill:#4a99d9;fill-opacity:1;fill-rule:nonzero;stroke:none;stroke-width:0.63500464"
       inkscape:connector-curvature="0" />
    <path
       id="path892"
       d="m 88.383544,107.43065 c 0,0.33691 -0.287568,0.60162 -0.623064,0.60162 -0.335496,0 -0.623064,-0.26471 -0.623064,-0.60162 0,-0.36096 0.287568,-0.62569 0.623064,-0.62569 0.335496,0 0.623064,0.26473 0.623064,0.62569 z"
       style="fill:#4a99d9;fill-opacity:1;fill-rule:nonzero;stroke:none;stroke-width:0.63500464"
       inkscape:connector-curvature="0" />
    <path
       id="path894"
       d="m 95.644636,110.05372 c 0,0.3369 -0.263604,0.60161 -0.599099,0.60161 -0.335497,0 -0.623064,-0.26471 -0.623064,-0.60161 0,-0.36098 0.287567,-0.62568 0.623064,-0.62568 0.335495,0 0.599099,0.2647 0.599099,0.62568 z"
       style="fill:#4a99d9;fill-opacity:1;fill-rule:nonzero;stroke:none;stroke-width:0.63500464"
       inkscape:connector-curvature="0" />
    <path
       id="path896"
       d="m 93.415985,112.96555 c 0,0.36098 -0.287568,0.62568 -0.623064,0.62568 -0.335497,0 -0.623064,-0.2647 -0.623064,-0.62568 0,-0.3369 0.287567,-0.60161 0.623064,-0.60161 0.335496,0 0.623064,0.26471 0.623064,0.60161 z"
       style="fill:#4a99d9;fill-opacity:1;fill-rule:nonzero;stroke:none;stroke-width:0.63500464"
       inkscape:connector-curvature="0" />
    <path
       id="path898"
       d="m 91.235259,117.48972 c 0,0.33692 -0.287567,0.62572 -0.623064,0.62572 -0.335496,0 -0.623064,-0.2888 -0.623064,-0.62572 0,-0.33689 0.287568,-0.62565 0.623064,-0.62565 0.335497,0 0.623064,0.28876 0.623064,0.62565 z"
       style="fill:#4a99d9;fill-opacity:1;fill-rule:nonzero;stroke:none;stroke-width:0.63500464"
       inkscape:connector-curvature="0" />
    <path
       id="path900"
       d="m 91.570757,119.79995 c 0,0.33692 -0.263605,0.60161 -0.599102,0.60161 -0.35946,0 -0.623064,-0.26469 -0.623064,-0.60161 0,-0.36096 0.263604,-0.62568 0.623064,-0.62568 0.335497,0 0.599102,0.26472 0.599102,0.62568 z"
       style="fill:#4a99d9;fill-opacity:1;fill-rule:nonzero;stroke:none;stroke-width:0.63500464"
       inkscape:connector-curvature="0" />
    <path
       id="path902"
       d="m 98.664101,120.18499 c 0,0.33691 -0.263604,0.62568 -0.599099,0.62568 -0.359461,0 -0.623064,-0.28877 -0.623064,-0.62568 0,-0.33691 0.263603,-0.62568 0.623064,-0.62568 0.335495,0 0.599099,0.28877 0.599099,0.62568 z"
       style="fill:#4a99d9;fill-opacity:1;fill-rule:nonzero;stroke:none;stroke-width:0.63500464"
       inkscape:connector-curvature="0" />
    <path
       id="path904"
       d="m 99.718518,119.10208 c 0,0.36096 -0.287568,0.62569 -0.623066,0.62569 -0.335497,0 -0.623063,-0.26473 -0.623063,-0.62569 0,-0.33692 0.287566,-0.60162 0.623063,-0.60162 0.335498,0 0.623066,0.2647 0.623066,0.60162 z"
       style="fill:#4a99d9;fill-opacity:1;fill-rule:nonzero;stroke:none;stroke-width:0.63500464"
       inkscape:connector-curvature="0" />
    <path
       id="path906"
       d="m 105.8533,118.9577 c 0,0.33688 -0.28757,0.60161 -0.62306,0.60161 -0.3355,0 -0.62307,-0.26473 -0.62307,-0.60161 0,-0.33693 0.28757,-0.62569 0.62307,-0.62569 0.33549,0 0.62306,0.28876 0.62306,0.62569 z"
       style="fill:#4a99d9;fill-opacity:1;fill-rule:nonzero;stroke:none;stroke-width:0.63500464"
       inkscape:connector-curvature="0" />
    <path
       id="path908"
       d="m 108.60916,115.29982 c 0,0.33693 -0.2636,0.62572 -0.5991,0.62572 -0.3355,0 -0.62306,-0.28879 -0.62306,-0.62572 0,-0.33688 0.28756,-0.62568 0.62306,-0.62568 0.3355,0 0.5991,0.2888 0.5991,0.62568 z"
       style="fill:#4a99d9;fill-opacity:1;fill-rule:nonzero;stroke:none;stroke-width:0.63500464"
       inkscape:connector-curvature="0" />
    <path
       id="path910"
       d="m 106.28465,122.18238 c 0,0.3369 -0.28757,0.62569 -0.62306,0.62569 -0.3355,0 -0.5991,-0.28879 -0.5991,-0.62569 0,-0.33691 0.2636,-0.62571 0.5991,-0.62571 0.33549,0 0.62306,0.2888 0.62306,0.62571 z"
       style="fill:#4a99d9;fill-opacity:1;fill-rule:nonzero;stroke:none;stroke-width:0.63500464"
       inkscape:connector-curvature="0" />
    <path
       id="path912"
       d="m 89.989131,116.02177 c 0,0.33692 -0.263603,0.60164 -0.599099,0.60164 -0.35946,0 -0.623064,-0.26472 -0.623064,-0.60164 0,-0.36096 0.263604,-0.62567 0.623064,-0.62567 0.335496,0 0.599099,0.26471 0.599099,0.62567 z"
       style="fill:#4a99d9;fill-opacity:1;fill-rule:nonzero;stroke:none;stroke-width:0.63500464"
       inkscape:connector-curvature="0" />
    <path
       id="path914"
       d="m 87.640662,116.62341 c 0,0.33689 -0.287571,0.62568 -0.623064,0.62568 -0.335497,0 -0.599101,-0.28879 -0.599101,-0.62568 0,-0.33691 0.263604,-0.60164 0.599101,-0.60164 0.335493,0 0.623064,0.26473 0.623064,0.60164 z"
       style="fill:#4a99d9;fill-opacity:1;fill-rule:nonzero;stroke:none;stroke-width:0.63500464"
       inkscape:connector-curvature="0" />
    <path
       id="path916"
       d="m 80.85885,114.96294 c 0,0.33688 -0.263606,0.62568 -0.623063,0.62568 -0.335497,0 -0.599102,-0.2888 -0.599102,-0.62568 0,-0.33691 0.263605,-0.60161 0.599102,-0.60161 0.359457,0 0.623063,0.2647 0.623063,0.60161 z"
       style="fill:#4a99d9;fill-opacity:1;fill-rule:nonzero;stroke:none;stroke-width:0.63500464"
       inkscape:connector-curvature="0" />
    <path
       id="path918"
       d="m 82.272725,118.8855 c 0,0.33689 -0.287568,0.62568 -0.623064,0.62568 -0.335497,0 -0.623064,-0.28879 -0.623064,-0.62568 0,-0.33691 0.287567,-0.62569 0.623064,-0.62569 0.335496,0 0.623064,0.28878 0.623064,0.62569 z"
       style="fill:#4a99d9;fill-opacity:1;fill-rule:nonzero;stroke:none;stroke-width:0.63500464"
       inkscape:connector-curvature="0" />
    <path
       id="path920"
       d="m 82.272725,121.3401 c 0,0.33691 -0.287568,0.62568 -0.623064,0.62568 -0.335497,0 -0.623064,-0.28877 -0.623064,-0.62568 0,-0.3369 0.287567,-0.62569 0.623064,-0.62569 0.335496,0 0.623064,0.28879 0.623064,0.62569 z"
       style="fill:#4a99d9;fill-opacity:1;fill-rule:nonzero;stroke:none;stroke-width:0.63500464"
       inkscape:connector-curvature="0" />
    <path
       id="path922"
       d="m 87.40102,121.77327 c 0,0.33691 -0.263604,0.60161 -0.623064,0.60161 -0.335497,0 -0.599099,-0.2647 -0.599099,-0.60161 0,-0.36099 0.263602,-0.62568 0.599099,-0.62568 0.35946,0 0.623064,0.26469 0.623064,0.62568 z"
       style="fill:#4a99d9;fill-opacity:1;fill-rule:nonzero;stroke:none;stroke-width:0.63500464"
       inkscape:connector-curvature="0" />
    <path
       id="path924"
       d="m 92.193819,126.20119 c 0,0.36099 -0.287568,0.62568 -0.623062,0.62568 -0.335498,0 -0.599102,-0.26469 -0.599102,-0.62568 0,-0.33692 0.263604,-0.60161 0.599102,-0.60161 0.335494,0 0.623062,0.26469 0.623062,0.60161 z"
       style="fill:#4a99d9;fill-opacity:1;fill-rule:nonzero;stroke:none;stroke-width:0.63500464"
       inkscape:connector-curvature="0" />
    <path
       id="path926"
       d="m 84.52534,126.34557 c 0,0.36099 -0.263603,0.62569 -0.623063,0.62569 -0.335497,0 -0.599101,-0.2647 -0.599101,-0.62569 0,-0.33689 0.263604,-0.60162 0.599101,-0.60162 0.35946,0 0.623063,0.26473 0.623063,0.60162 z"
       style="fill:#4a99d9;fill-opacity:1;fill-rule:nonzero;stroke:none;stroke-width:0.63500464"
       inkscape:connector-curvature="0" />
    <path
       id="path928"
       d="m 82.895789,127.74133 c 0,0.33691 -0.287569,0.60164 -0.623064,0.60164 -0.335497,0 -0.623064,-0.26473 -0.623064,-0.60164 0,-0.36097 0.287567,-0.62567 0.623064,-0.62567 0.335495,0 0.623064,0.2647 0.623064,0.62567 z"
       style="fill:#4a99d9;fill-opacity:1;fill-rule:nonzero;stroke:none;stroke-width:0.63500464"
       inkscape:connector-curvature="0" />
    <path
       id="path930"
       d="m 84.117954,131.71204 c 0,0.36096 -0.287571,0.62567 -0.623064,0.62567 -0.335498,0 -0.599101,-0.26471 -0.599101,-0.62567 0,-0.33691 0.263603,-0.60162 0.599101,-0.60162 0.335493,0 0.623064,0.26471 0.623064,0.60162 z"
       style="fill:#4a99d9;fill-opacity:1;fill-rule:nonzero;stroke:none;stroke-width:0.63500464"
       inkscape:connector-curvature="0" />
    <path
       id="path932"
       d="m 80.834886,134.72012 c 0,0.33692 -0.263604,0.62569 -0.599099,0.62569 -0.335497,0 -0.623064,-0.28877 -0.623064,-0.62569 0,-0.33689 0.287567,-0.62568 0.623064,-0.62568 0.335495,0 0.599099,0.28879 0.599099,0.62568 z"
       style="fill:#4a99d9;fill-opacity:1;fill-rule:nonzero;stroke:none;stroke-width:0.63500464"
       inkscape:connector-curvature="0" />
    <path
       id="path934"
       d="m 79.852362,135.7068 c 0,0.33688 -0.263606,0.62568 -0.599099,0.62568 -0.359462,0 -0.623067,-0.2888 -0.623067,-0.62568 0,-0.33693 0.263605,-0.62569 0.623067,-0.62569 0.335493,0 0.599099,0.28876 0.599099,0.62569 z"
       style="fill:#4a99d9;fill-opacity:1;fill-rule:nonzero;stroke:none;stroke-width:0.63500464"
       inkscape:connector-curvature="0" />
    <path
       id="path936"
       d="m 81.266237,136.33248 c 0,0.33689 -0.287569,0.60161 -0.623064,0.60161 -0.335497,0 -0.599101,-0.26472 -0.599101,-0.60161 0,-0.33692 0.263604,-0.62568 0.599101,-0.62568 0.335495,0 0.623064,0.28876 0.623064,0.62568 z"
       style="fill:#4a99d9;fill-opacity:1;fill-rule:nonzero;stroke:none;stroke-width:0.63500464"
       inkscape:connector-curvature="0" />
    <path
       id="path938"
       d="m 82.081013,138.59457 c 0,0.33689 -0.287568,0.60161 -0.623063,0.60161 -0.335496,0 -0.623064,-0.26472 -0.623064,-0.60161 0,-0.33692 0.287568,-0.62568 0.623064,-0.62568 0.335495,0 0.623063,0.28876 0.623063,0.62568 z"
       style="fill:#4a99d9;fill-opacity:1;fill-rule:nonzero;stroke:none;stroke-width:0.63500464"
       inkscape:connector-curvature="0" />
    <path
       id="path940"
       d="m 82.895789,139.58122 c 0,0.33691 -0.287569,0.60163 -0.623064,0.60163 -0.335497,0 -0.623064,-0.26472 -0.623064,-0.60163 0,-0.3369 0.287567,-0.62569 0.623064,-0.62569 0.335495,0 0.623064,0.28879 0.623064,0.62569 z"
       style="fill:#4a99d9;fill-opacity:1;fill-rule:nonzero;stroke:none;stroke-width:0.63500464"
       inkscape:connector-curvature="0" />
    <path
       id="path942"
       d="m 87.305165,135.49021 c 0,0.3369 -0.263605,0.62567 -0.599102,0.62567 -0.335493,0 -0.623064,-0.28877 -0.623064,-0.62567 0,-0.33691 0.287571,-0.60164 0.623064,-0.60164 0.335497,0 0.599102,0.26473 0.599102,0.60164 z"
       style="fill:#4a99d9;fill-opacity:1;fill-rule:nonzero;stroke:none;stroke-width:0.63500464"
       inkscape:connector-curvature="0" />
    <path
       id="path944"
       d="m 89.845348,132.86713 c 0,0.33693 -0.263605,0.62569 -0.623063,0.62569 -0.335496,0 -0.599102,-0.28876 -0.599102,-0.62569 0,-0.33691 0.263606,-0.62568 0.599102,-0.62568 0.359458,0 0.623063,0.28877 0.623063,0.62568 z"
       style="fill:#4a99d9;fill-opacity:1;fill-rule:nonzero;stroke:none;stroke-width:0.63500464"
       inkscape:connector-curvature="0" />
    <path
       id="path946"
       d="m 94.638148,134.69608 c 0,0.33688 -0.263604,0.62568 -0.599099,0.62568 -0.359461,0 -0.623064,-0.2888 -0.623064,-0.62568 0,-0.33693 0.263603,-0.62569 0.623064,-0.62569 0.335495,0 0.599099,0.28876 0.599099,0.62569 z"
       style="fill:#4a99d9;fill-opacity:1;fill-rule:nonzero;stroke:none;stroke-width:0.63500464"
       inkscape:connector-curvature="0" />
    <path
       id="path948"
       d="m 94.638148,131.37513 c 0,0.36096 -0.263604,0.62567 -0.599099,0.62567 -0.359461,0 -0.623064,-0.26471 -0.623064,-0.62567 0,-0.33693 0.263603,-0.60162 0.623064,-0.60162 0.335495,0 0.599099,0.26469 0.599099,0.60162 z"
       style="fill:#4a99d9;fill-opacity:1;fill-rule:nonzero;stroke:none;stroke-width:0.63500464"
       inkscape:connector-curvature="0" />
    <path
       id="path950"
       d="m 79.253263,140.59194 c 0,0.33691 -0.287568,0.62568 -0.623067,0.62568 -0.335494,0 -0.623063,-0.28877 -0.623063,-0.62568 0,-0.3369 0.287569,-0.60161 0.623063,-0.60161 0.335499,0 0.623067,0.26471 0.623067,0.60161 z"
       style="fill:#4a99d9;fill-opacity:1;fill-rule:nonzero;stroke:none;stroke-width:0.63500464"
       inkscape:connector-curvature="0" />
    <path
       id="path952"
       d="m 83.49489,141.69892 c 0,0.33691 -0.263606,0.60161 -0.599101,0.60161 -0.359459,0 -0.623064,-0.2647 -0.623064,-0.60161 0,-0.3369 0.263605,-0.62569 0.623064,-0.62569 0.335495,0 0.599101,0.28879 0.599101,0.62569 z"
       style="fill:#4a99d9;fill-opacity:1;fill-rule:nonzero;stroke:none;stroke-width:0.63500464"
       inkscape:connector-curvature="0" />
    <path
       id="path954"
       d="m 86.658138,144.68296 c 0,0.33691 -0.263606,0.62568 -0.623064,0.62568 -0.335497,0 -0.599102,-0.28877 -0.599102,-0.62568 0,-0.33692 0.263605,-0.60161 0.599102,-0.60161 0.359458,0 0.623064,0.26469 0.623064,0.60161 z"
       style="fill:#4a99d9;fill-opacity:1;fill-rule:nonzero;stroke:none;stroke-width:0.63500464"
       inkscape:connector-curvature="0" />
    <path
       id="path956"
       d="m 90.947692,148.89429 c 0,0.33691 -0.287568,0.62568 -0.623064,0.62568 -0.335497,0 -0.5991,-0.28877 -0.5991,-0.62568 0,-0.33689 0.263603,-0.62569 0.5991,-0.62569 0.335496,0 0.623064,0.2888 0.623064,0.62569 z"
       style="fill:#4a99d9;fill-opacity:1;fill-rule:nonzero;stroke:none;stroke-width:0.63500464"
       inkscape:connector-curvature="0" />
    <path
       id="path958"
       d="m 83.351105,155.15113 c 0,0.33692 -0.263604,0.60161 -0.623064,0.60161 -0.335495,0 -0.599099,-0.26469 -0.599099,-0.60161 0,-0.36096 0.263604,-0.62568 0.599099,-0.62568 0.35946,0 0.623064,0.26472 0.623064,0.62568 z"
       style="fill:#4a99d9;fill-opacity:1;fill-rule:nonzero;stroke:none;stroke-width:0.63500464"
       inkscape:connector-curvature="0" />
    <path
       id="path960"
       d="m 83.974169,159.14589 c 0,0.33691 -0.287568,0.60161 -0.623064,0.60161 -0.335496,0 -0.623064,-0.2647 -0.623064,-0.60161 0,-0.36096 0.287568,-0.62568 0.623064,-0.62568 0.335496,0 0.623064,0.26472 0.623064,0.62568 z"
       style="fill:#4a99d9;fill-opacity:1;fill-rule:nonzero;stroke:none;stroke-width:0.63500464"
       inkscape:connector-curvature="0" />
    <path
       id="path962"
       d="m 84.956693,160.06035 c 0,0.33691 -0.287568,0.60164 -0.623064,0.60164 -0.335496,0 -0.623064,-0.26473 -0.623064,-0.60164 0,-0.3369 0.287568,-0.62569 0.623064,-0.62569 0.335496,0 0.623064,0.28879 0.623064,0.62569 z"
       style="fill:#4a99d9;fill-opacity:1;fill-rule:nonzero;stroke:none;stroke-width:0.63500464"
       inkscape:connector-curvature="0" />
    <path
       id="path964"
       d="m 87.281202,160.66199 c 0,0.36096 -0.287568,0.62568 -0.623064,0.62568 -0.335497,0 -0.623064,-0.26472 -0.623064,-0.62568 0,-0.33692 0.287567,-0.60164 0.623064,-0.60164 0.335496,0 0.623064,0.26472 0.623064,0.60164 z"
       style="fill:#4a99d9;fill-opacity:1;fill-rule:nonzero;stroke:none;stroke-width:0.63500464"
       inkscape:connector-curvature="0" />
    <path
       id="path966"
       d="m 90.779945,160.06035 c 0,0.33691 -0.263604,0.60164 -0.5991,0.60164 -0.335497,0 -0.623063,-0.26473 -0.623063,-0.60164 0,-0.3369 0.287566,-0.62569 0.623063,-0.62569 0.335496,0 0.5991,0.28879 0.5991,0.62569 z"
       style="fill:#4a99d9;fill-opacity:1;fill-rule:nonzero;stroke:none;stroke-width:0.63500464"
       inkscape:connector-curvature="0" />
    <path
       id="path968"
       d="m 90.180845,163.11657 c 0,0.36099 -0.287568,0.62569 -0.623063,0.62569 -0.335497,0 -0.623065,-0.2647 -0.623065,-0.62569 0,-0.33688 0.287568,-0.60161 0.623065,-0.60161 0.335495,0 0.623063,0.26473 0.623063,0.60161 z"
       style="fill:#4a99d9;fill-opacity:1;fill-rule:nonzero;stroke:none;stroke-width:0.63500464"
       inkscape:connector-curvature="0" />
    <path
       id="path970"
       d="m 88.095976,165.04178 c 0,0.33691 -0.263604,0.60161 -0.623064,0.60161 -0.335496,0 -0.599099,-0.2647 -0.599099,-0.60161 0,-0.36099 0.263603,-0.62569 0.599099,-0.62569 0.35946,0 0.623064,0.2647 0.623064,0.62569 z"
       style="fill:#4a99d9;fill-opacity:1;fill-rule:nonzero;stroke:none;stroke-width:0.63500464"
       inkscape:connector-curvature="0" />
    <path
       id="path972"
       d="m 89.078499,167.08728 c 0,0.3369 -0.263603,0.60162 -0.599099,0.60162 -0.35946,0 -0.623064,-0.26472 -0.623064,-0.60162 0,-0.33691 0.263604,-0.62568 0.623064,-0.62568 0.335496,0 0.599099,0.28877 0.599099,0.62568 z"
       style="fill:#4a99d9;fill-opacity:1;fill-rule:nonzero;stroke:none;stroke-width:0.63500464"
       inkscape:connector-curvature="0" />
    <path
       id="path974"
       d="m 92.840849,165.64339 c 0,0.36096 -0.263605,0.62568 -0.599102,0.62568 -0.35946,0 -0.623064,-0.26472 -0.623064,-0.62568 0,-0.33691 0.263604,-0.60161 0.623064,-0.60161 0.335497,0 0.599102,0.2647 0.599102,0.60161 z"
       style="fill:#4a99d9;fill-opacity:1;fill-rule:nonzero;stroke:none;stroke-width:0.63500464"
       inkscape:connector-curvature="0" />
    <path
       id="path976"
       d="m 94.422473,165.23429 c 0,0.33691 -0.263603,0.60162 -0.5991,0.60162 -0.359461,0 -0.623064,-0.26471 -0.623064,-0.60162 0,-0.3369 0.263603,-0.6257 0.623064,-0.6257 0.335497,0 0.5991,0.2888 0.5991,0.6257 z"
       style="fill:#4a99d9;fill-opacity:1;fill-rule:nonzero;stroke:none;stroke-width:0.63500464"
       inkscape:connector-curvature="0" />
    <path
       id="path978"
       d="m 94.853825,167.6889 c 0,0.36096 -0.287569,0.62569 -0.623063,0.62569 -0.335496,0 -0.623067,-0.26473 -0.623067,-0.62569 0,-0.33692 0.287571,-0.60162 0.623067,-0.60162 0.335494,0 0.623063,0.2647 0.623063,0.60162 z"
       style="fill:#4a99d9;fill-opacity:1;fill-rule:nonzero;stroke:none;stroke-width:0.63500464"
       inkscape:connector-curvature="0" />
    <path
       id="path980"
       d="m 97.322117,168.1702 c 0,0.33689 -0.287568,0.60161 -0.623064,0.60161 -0.335497,0 -0.623063,-0.26472 -0.623063,-0.60161 0,-0.36099 0.287566,-0.62568 0.623063,-0.62568 0.335496,0 0.623064,0.26469 0.623064,0.62568 z"
       style="fill:#4a99d9;fill-opacity:1;fill-rule:nonzero;stroke:none;stroke-width:0.63500464"
       inkscape:connector-curvature="0" />
    <path
       id="path982"
       d="m 104.53528,167.20759 c 0,0.33693 -0.2636,0.60162 -0.62306,0.60162 -0.3355,0 -0.5991,-0.26469 -0.5991,-0.60162 0,-0.33691 0.2636,-0.62567 0.5991,-0.62567 0.35946,0 0.62306,0.28876 0.62306,0.62567 z"
       style="fill:#4a99d9;fill-opacity:1;fill-rule:nonzero;stroke:none;stroke-width:0.63500464"
       inkscape:connector-curvature="0" />
    <path
       id="path984"
       d="m 104.63114,165.08989 c 0,0.33692 -0.26361,0.60165 -0.5991,0.60165 -0.3355,0 -0.62307,-0.26473 -0.62307,-0.60165 0,-0.33688 0.28757,-0.62567 0.62307,-0.62567 0.33549,0 0.5991,0.28879 0.5991,0.62567 z"
       style="fill:#4a99d9;fill-opacity:1;fill-rule:nonzero;stroke:none;stroke-width:0.63500464"
       inkscape:connector-curvature="0" />
    <path
       id="path986"
       d="m 107.69853,165.37869 c 0,0.36096 -0.2636,0.62566 -0.62306,0.62566 -0.3355,0 -0.5991,-0.2647 -0.5991,-0.62566 0,-0.33691 0.2636,-0.60164 0.5991,-0.60164 0.35946,0 0.62306,0.26473 0.62306,0.60164 z"
       style="fill:#4a99d9;fill-opacity:1;fill-rule:nonzero;stroke:none;stroke-width:0.63500464"
       inkscape:connector-curvature="0" />
    <path
       id="path988"
       d="m 108.39348,164.24763 c 0,0.36096 -0.28756,0.62569 -0.62306,0.62569 -0.33549,0 -0.62306,-0.26473 -0.62306,-0.62569 0,-0.33691 0.28757,-0.60161 0.62306,-0.60161 0.3355,0 0.62306,0.2647 0.62306,0.60161 z"
       style="fill:#4a99d9;fill-opacity:1;fill-rule:nonzero;stroke:none;stroke-width:0.63500464"
       inkscape:connector-curvature="0" />
    <path
       id="path990"
       d="m 106.33258,162.94814 c 0,0.3369 -0.2636,0.62568 -0.5991,0.62568 -0.3355,0 -0.62306,-0.28878 -0.62306,-0.62568 0,-0.33691 0.28756,-0.6257 0.62306,-0.6257 0.3355,0 0.5991,0.28879 0.5991,0.6257 z"
       style="fill:#4a99d9;fill-opacity:1;fill-rule:nonzero;stroke:none;stroke-width:0.63500464"
       inkscape:connector-curvature="0" />
    <path
       id="path992"
       d="m 105.66159,161.81709 c 0,0.33691 -0.26361,0.62569 -0.5991,0.62569 -0.35946,0 -0.62307,-0.28878 -0.62307,-0.62569 0,-0.33691 0.26361,-0.62568 0.62307,-0.62568 0.33549,0 0.5991,0.28877 0.5991,0.62568 z"
       style="fill:#4a99d9;fill-opacity:1;fill-rule:nonzero;stroke:none;stroke-width:0.63500464"
       inkscape:connector-curvature="0" />
    <path
       id="path994"
       d="m 104.43942,161.04702 c 0,0.33691 -0.28756,0.60161 -0.62306,0.60161 -0.33549,0 -0.5991,-0.2647 -0.5991,-0.60161 0,-0.33691 0.26361,-0.62568 0.5991,-0.62568 0.3355,0 0.62306,0.28877 0.62306,0.62568 z"
       style="fill:#4a99d9;fill-opacity:1;fill-rule:nonzero;stroke:none;stroke-width:0.63500464"
       inkscape:connector-curvature="0" />
    <path
       id="path996"
       d="m 105.44591,160.42134 c 0,0.33691 -0.2636,0.62568 -0.5991,0.62568 -0.33549,0 -0.62306,-0.28877 -0.62306,-0.62568 0,-0.33693 0.28757,-0.62569 0.62306,-0.62569 0.3355,0 0.5991,0.28876 0.5991,0.62569 z"
       style="fill:#4a99d9;fill-opacity:1;fill-rule:nonzero;stroke:none;stroke-width:0.63500464"
       inkscape:connector-curvature="0" />
    <path
       id="path998"
       d="m 106.52429,158.95338 c 0,0.3369 -0.2636,0.6257 -0.5991,0.6257 -0.33549,0 -0.62306,-0.2888 -0.62306,-0.6257 0,-0.33691 0.28757,-0.62567 0.62306,-0.62567 0.3355,0 0.5991,0.28876 0.5991,0.62567 z"
       style="fill:#4a99d9;fill-opacity:1;fill-rule:nonzero;stroke:none;stroke-width:0.63500464"
       inkscape:connector-curvature="0" />
    <path
       id="path1000"
       d="m 107.57871,158.95338 c 0,0.3369 -0.28757,0.6257 -0.62307,0.6257 -0.33549,0 -0.62306,-0.2888 -0.62306,-0.6257 0,-0.33691 0.28757,-0.62567 0.62306,-0.62567 0.3355,0 0.62307,0.28876 0.62307,0.62567 z"
       style="fill:#4a99d9;fill-opacity:1;fill-rule:nonzero;stroke:none;stroke-width:0.63500464"
       inkscape:connector-curvature="0" />
    <path
       id="path1002"
       d="m 107.33907,161.38393 c 0,0.3369 -0.2636,0.60161 -0.5991,0.60161 -0.3355,0 -0.62306,-0.26471 -0.62306,-0.60161 0,-0.36098 0.28756,-0.62568 0.62306,-0.62568 0.3355,0 0.5991,0.2647 0.5991,0.62568 z"
       style="fill:#4a99d9;fill-opacity:1;fill-rule:nonzero;stroke:none;stroke-width:0.63500464"
       inkscape:connector-curvature="0" />
    <path
       id="path1004"
       d="m 107.84231,162.154 c 0,0.33689 -0.28757,0.60161 -0.62306,0.60161 -0.3355,0 -0.62307,-0.26472 -0.62307,-0.60161 0,-0.36098 0.28757,-0.62568 0.62307,-0.62568 0.33549,0 0.62306,0.2647 0.62306,0.62568 z"
       style="fill:#4a99d9;fill-opacity:1;fill-rule:nonzero;stroke:none;stroke-width:0.63500464"
       inkscape:connector-curvature="0" />
    <path
       id="path1006"
       d="m 109.68754,162.82781 c 0,0.33691 -0.28757,0.62569 -0.62306,0.62569 -0.3355,0 -0.62307,-0.28878 -0.62307,-0.62569 0,-0.33692 0.28757,-0.62568 0.62307,-0.62568 0.33549,0 0.62306,0.28876 0.62306,0.62568 z"
       style="fill:#4a99d9;fill-opacity:1;fill-rule:nonzero;stroke:none;stroke-width:0.63500464"
       inkscape:connector-curvature="0" />
    <path
       id="path1008"
       d="m 109.61565,161.28767 c 0,0.3369 -0.2636,0.60161 -0.62306,0.60161 -0.3355,0 -0.59911,-0.26471 -0.59911,-0.60161 0,-0.33691 0.26361,-0.62568 0.59911,-0.62568 0.35946,0 0.62306,0.28877 0.62306,0.62568 z"
       style="fill:#4a99d9;fill-opacity:1;fill-rule:nonzero;stroke:none;stroke-width:0.63500464"
       inkscape:connector-curvature="0" />
    <path
       id="path1010"
       d="m 110.11889,160.66199 c 0,0.33691 -0.28757,0.62568 -0.62306,0.62568 -0.3355,0 -0.5991,-0.28877 -0.5991,-0.62568 0,-0.33692 0.2636,-0.62569 0.5991,-0.62569 0.33549,0 0.62306,0.28877 0.62306,0.62569 z"
       style="fill:#4a99d9;fill-opacity:1;fill-rule:nonzero;stroke:none;stroke-width:0.63500464"
       inkscape:connector-curvature="0" />
    <path
       id="path1012"
       d="m 113.35403,162.82781 c 0,0.33691 -0.28757,0.62569 -0.62306,0.62569 -0.3355,0 -0.62307,-0.28878 -0.62307,-0.62569 0,-0.33692 0.28757,-0.62568 0.62307,-0.62568 0.33549,0 0.62306,0.28876 0.62306,0.62568 z"
       style="fill:#4a99d9;fill-opacity:1;fill-rule:nonzero;stroke:none;stroke-width:0.63500464"
       inkscape:connector-curvature="0" />
    <path
       id="path1014"
       d="m 113.42592,160.83045 c 0,0.33688 -0.2636,0.62567 -0.62306,0.62567 -0.3355,0 -0.5991,-0.28879 -0.5991,-0.62567 0,-0.33693 0.2636,-0.6257 0.5991,-0.6257 0.35946,0 0.62306,0.28877 0.62306,0.6257 z"
       style="fill:#4a99d9;fill-opacity:1;fill-rule:nonzero;stroke:none;stroke-width:0.63500464"
       inkscape:connector-curvature="0" />
    <path
       id="path1016"
       d="m 111.98809,159.26623 c 0,0.33688 -0.28757,0.60161 -0.62307,0.60161 -0.3355,0 -0.62306,-0.26473 -0.62306,-0.60161 0,-0.36099 0.28756,-0.62568 0.62306,-0.62568 0.3355,0 0.62307,0.26469 0.62307,0.62568 z"
       style="fill:#4a99d9;fill-opacity:1;fill-rule:nonzero;stroke:none;stroke-width:0.63500464"
       inkscape:connector-curvature="0" />
    <path
       id="path1018"
       d="m 113.25818,158.95338 c 0,0.3369 -0.26361,0.6257 -0.5991,0.6257 -0.3355,0 -0.62307,-0.2888 -0.62307,-0.6257 0,-0.33691 0.28757,-0.62567 0.62307,-0.62567 0.33549,0 0.5991,0.28876 0.5991,0.62567 z"
       style="fill:#4a99d9;fill-opacity:1;fill-rule:nonzero;stroke:none;stroke-width:0.63500464"
       inkscape:connector-curvature="0" />
    <path
       id="path1020"
       d="m 111.98809,157.4373 c 0,0.33691 -0.28757,0.62568 -0.62307,0.62568 -0.3355,0 -0.62306,-0.28877 -0.62306,-0.62568 0,-0.33691 0.28756,-0.60162 0.62306,-0.60162 0.3355,0 0.62307,0.26471 0.62307,0.60162 z"
       style="fill:#4a99d9;fill-opacity:1;fill-rule:nonzero;stroke:none;stroke-width:0.63500464"
       inkscape:connector-curvature="0" />
    <path
       id="path1022"
       d="m 110.6461,157.4373 c 0,0.33691 -0.2636,0.62568 -0.5991,0.62568 -0.33549,0 -0.62306,-0.28877 -0.62306,-0.62568 0,-0.33691 0.28757,-0.60162 0.62306,-0.60162 0.3355,0 0.5991,0.26471 0.5991,0.60162 z"
       style="fill:#4a99d9;fill-opacity:1;fill-rule:nonzero;stroke:none;stroke-width:0.63500464"
       inkscape:connector-curvature="0" />
    <path
       id="path1024"
       d="m 108.5852,157.24476 c 0,0.33691 -0.28757,0.6257 -0.62307,0.6257 -0.33549,0 -0.62306,-0.28879 -0.62306,-0.6257 0,-0.33688 0.28757,-0.62565 0.62306,-0.62565 0.3355,0 0.62307,0.28877 0.62307,0.62565 z"
       style="fill:#4a99d9;fill-opacity:1;fill-rule:nonzero;stroke:none;stroke-width:0.63500464"
       inkscape:connector-curvature="0" />
    <path
       id="path1026"
       d="m 109.28015,156.37846 c 0,0.33689 -0.2636,0.62568 -0.5991,0.62568 -0.33549,0 -0.62306,-0.28879 -0.62306,-0.62568 0,-0.33692 0.28757,-0.60164 0.62306,-0.60164 0.3355,0 0.5991,0.26472 0.5991,0.60164 z"
       style="fill:#4a99d9;fill-opacity:1;fill-rule:nonzero;stroke:none;stroke-width:0.63500464"
       inkscape:connector-curvature="0" />
    <path
       id="path1028"
       d="m 110.57421,154.64579 c 0,0.33688 -0.26361,0.62568 -0.5991,0.62568 -0.3355,0 -0.62306,-0.2888 -0.62306,-0.62568 0,-0.33691 0.28756,-0.62569 0.62306,-0.62569 0.33549,0 0.5991,0.28878 0.5991,0.62569 z"
       style="fill:#4a99d9;fill-opacity:1;fill-rule:nonzero;stroke:none;stroke-width:0.63500464"
       inkscape:connector-curvature="0" />
    <path
       id="path1030"
       d="m 112.85079,155.07895 c 0,0.33691 -0.26361,0.62568 -0.62307,0.62568 -0.33549,0 -0.59909,-0.28877 -0.59909,-0.62568 0,-0.33693 0.2636,-0.60162 0.59909,-0.60162 0.35946,0 0.62307,0.26469 0.62307,0.60162 z"
       style="fill:#4a99d9;fill-opacity:1;fill-rule:nonzero;stroke:none;stroke-width:0.63500464"
       inkscape:connector-curvature="0" />
    <path
       id="path1032"
       d="m 112.37151,153.41847 c 0,0.33691 -0.26361,0.60163 -0.5991,0.60163 -0.35946,0 -0.62307,-0.26472 -0.62307,-0.60163 0,-0.3369 0.26361,-0.62569 0.62307,-0.62569 0.33549,0 0.5991,0.28879 0.5991,0.62569 z"
       style="fill:#4a99d9;fill-opacity:1;fill-rule:nonzero;stroke:none;stroke-width:0.63500464"
       inkscape:connector-curvature="0" />
    <path
       id="path1034"
       d="m 109.73547,153.27408 c 0,0.33691 -0.28757,0.60161 -0.62306,0.60161 -0.3355,0 -0.62307,-0.2647 -0.62307,-0.60161 0,-0.33688 0.28757,-0.62568 0.62307,-0.62568 0.33549,0 0.62306,0.2888 0.62306,0.62568 z"
       style="fill:#4a99d9;fill-opacity:1;fill-rule:nonzero;stroke:none;stroke-width:0.63500464"
       inkscape:connector-curvature="0" />
    <path
       id="path1036"
       d="m 106.09294,155.70463 c 0,0.33691 -0.28757,0.62569 -0.62306,0.62569 -0.3355,0 -0.62307,-0.28878 -0.62307,-0.62569 0,-0.33691 0.28757,-0.62568 0.62307,-0.62568 0.33549,0 0.62306,0.28877 0.62306,0.62568 z"
       style="fill:#4a99d9;fill-opacity:1;fill-rule:nonzero;stroke:none;stroke-width:0.63500464"
       inkscape:connector-curvature="0" />
    <path
       id="path1038"
       d="m 105.66159,154.33294 c 0,0.3369 -0.28757,0.6257 -0.62307,0.6257 -0.33549,0 -0.62306,-0.2888 -0.62306,-0.6257 0,-0.33691 0.28757,-0.60164 0.62306,-0.60164 0.3355,0 0.62307,0.26473 0.62307,0.60164 z"
       style="fill:#4a99d9;fill-opacity:1;fill-rule:nonzero;stroke:none;stroke-width:0.63500464"
       inkscape:connector-curvature="0" />
    <path
       id="path1040"
       d="m 106.09294,150.81948 c 0,0.3369 -0.28757,0.62567 -0.62306,0.62567 -0.3355,0 -0.62307,-0.28877 -0.62307,-0.62567 0,-0.33691 0.28757,-0.62567 0.62307,-0.62567 0.33549,0 0.62306,0.28876 0.62306,0.62567 z"
       style="fill:#4a99d9;fill-opacity:1;fill-rule:nonzero;stroke:none;stroke-width:0.63500464"
       inkscape:connector-curvature="0" />
    <path
       id="path1042"
       d="m 108.63313,149.32746 c 0,0.3369 -0.28757,0.6257 -0.62307,0.6257 -0.3355,0 -0.5991,-0.2888 -0.5991,-0.6257 0,-0.33691 0.2636,-0.62567 0.5991,-0.62567 0.3355,0 0.62307,0.28876 0.62307,0.62567 z"
       style="fill:#4a99d9;fill-opacity:1;fill-rule:nonzero;stroke:none;stroke-width:0.63500464"
       inkscape:connector-curvature="0" />
    <path
       id="path1044"
       d="m 107.3151,147.95577 c 0,0.36097 -0.2636,0.62568 -0.62306,0.62568 -0.33549,0 -0.5991,-0.26471 -0.5991,-0.62568 0,-0.33693 0.26361,-0.60161 0.5991,-0.60161 0.35946,0 0.62306,0.26468 0.62306,0.60161 z"
       style="fill:#4a99d9;fill-opacity:1;fill-rule:nonzero;stroke:none;stroke-width:0.63500464"
       inkscape:connector-curvature="0" />
    <path
       id="path1046"
       d="m 108.15385,146.19905 c 0,0.36096 -0.26361,0.62567 -0.59911,0.62567 -0.33549,0 -0.62306,-0.26471 -0.62306,-0.62567 0,-0.33692 0.28757,-0.60164 0.62306,-0.60164 0.3355,0 0.59911,0.26472 0.59911,0.60164 z"
       style="fill:#4a99d9;fill-opacity:1;fill-rule:nonzero;stroke:none;stroke-width:0.63500464"
       inkscape:connector-curvature="0" />
    <path
       id="path1048"
       d="m 105.20627,144.56265 c 0,0.33688 -0.28756,0.6016 -0.62306,0.6016 -0.3355,0 -0.62306,-0.26472 -0.62306,-0.6016 0,-0.36099 0.28756,-0.62569 0.62306,-0.62569 0.3355,0 0.62306,0.2647 0.62306,0.62569 z"
       style="fill:#4a99d9;fill-opacity:1;fill-rule:nonzero;stroke:none;stroke-width:0.63500464"
       inkscape:connector-curvature="0" />
    <path
       id="path1050"
       d="m 106.02105,143.23906 c 0,0.33691 -0.28757,0.6257 -0.62307,0.6257 -0.33549,0 -0.5991,-0.28879 -0.5991,-0.6257 0,-0.33689 0.26361,-0.60162 0.5991,-0.60162 0.3355,0 0.62307,0.26473 0.62307,0.60162 z"
       style="fill:#4a99d9;fill-opacity:1;fill-rule:nonzero;stroke:none;stroke-width:0.63500464"
       inkscape:connector-curvature="0" />
    <path
       id="path1052"
       d="m 107.77042,143.69631 c 0,0.33689 -0.2636,0.62569 -0.5991,0.62569 -0.35946,0 -0.62306,-0.2888 -0.62306,-0.62569 0,-0.33692 0.2636,-0.62571 0.62306,-0.62571 0.3355,0 0.5991,0.28879 0.5991,0.62571 z"
       style="fill:#4a99d9;fill-opacity:1;fill-rule:nonzero;stroke:none;stroke-width:0.63500464"
       inkscape:connector-curvature="0" />
    <path
       id="path1054"
       d="m 105.46988,142.22834 c 0,0.33691 -0.26361,0.62567 -0.62307,0.62567 -0.33549,0 -0.5991,-0.28876 -0.5991,-0.62567 0,-0.3369 0.26361,-0.62568 0.5991,-0.62568 0.35946,0 0.62307,0.28878 0.62307,0.62568 z"
       style="fill:#4a99d9;fill-opacity:1;fill-rule:nonzero;stroke:none;stroke-width:0.63500464"
       inkscape:connector-curvature="0" />
    <path
       id="path1056"
       d="m 104.84681,140.6882 c 0,0.33691 -0.2636,0.62568 -0.5991,0.62568 -0.33549,0 -0.62306,-0.28877 -0.62306,-0.62568 0,-0.33691 0.28757,-0.62569 0.62306,-0.62569 0.3355,0 0.5991,0.28878 0.5991,0.62569 z"
       style="fill:#4a99d9;fill-opacity:1;fill-rule:nonzero;stroke:none;stroke-width:0.63500464"
       inkscape:connector-curvature="0" />
    <path
       id="path1058"
       d="m 102.09095,139.29244 c 0,0.33692 -0.28757,0.60161 -0.62306,0.60161 -0.3355,0 -0.62307,-0.26469 -0.62307,-0.60161 0,-0.36098 0.28757,-0.62568 0.62307,-0.62568 0.33549,0 0.62306,0.2647 0.62306,0.62568 z"
       style="fill:#4a99d9;fill-opacity:1;fill-rule:nonzero;stroke:none;stroke-width:0.63500464"
       inkscape:connector-curvature="0" />
    <path
       id="path1060"
       d="m 104.58321,135.92337 c 0,0.33691 -0.26361,0.62568 -0.62306,0.62568 -0.3355,0 -0.59911,-0.28877 -0.59911,-0.62568 0,-0.33691 0.26361,-0.60161 0.59911,-0.60161 0.35945,0 0.62306,0.2647 0.62306,0.60161 z"
       style="fill:#4a99d9;fill-opacity:1;fill-rule:nonzero;stroke:none;stroke-width:0.63500464"
       inkscape:connector-curvature="0" />
    <path
       id="path1062"
       d="m 99.742481,139.38871 c 0,0.33689 -0.263605,0.62568 -0.599102,0.62568 -0.335496,0 -0.623064,-0.28879 -0.623064,-0.62568 0,-0.33692 0.287568,-0.62569 0.623064,-0.62569 0.335497,0 0.599102,0.28877 0.599102,0.62569 z"
       style="fill:#4a99d9;fill-opacity:1;fill-rule:nonzero;stroke:none;stroke-width:0.63500464"
       inkscape:connector-curvature="0" />
    <path
       id="path1064"
       d="m 101.10843,141.72298 c 0,0.33693 -0.28757,0.60162 -0.62307,0.60162 -0.33549,0 -0.599096,-0.26469 -0.599096,-0.60162 0,-0.33691 0.263606,-0.62567 0.599096,-0.62567 0.3355,0 0.62307,0.28876 0.62307,0.62567 z"
       style="fill:#4a99d9;fill-opacity:1;fill-rule:nonzero;stroke:none;stroke-width:0.63500464"
       inkscape:connector-curvature="0" />
    <path
       id="path1066"
       d="m 101.85131,141.67487 c 0,0.36096 -0.28756,0.62566 -0.62306,0.62566 -0.3355,0 -0.62306,-0.2647 -0.62306,-0.62566 0,-0.33691 0.28756,-0.60164 0.62306,-0.60164 0.3355,0 0.62306,0.26473 0.62306,0.60164 z"
       style="fill:#4a99d9;fill-opacity:1;fill-rule:nonzero;stroke:none;stroke-width:0.63500464"
       inkscape:connector-curvature="0" />
    <path
       id="path1068"
       d="m 102.33059,143.45565 c 0,0.36097 -0.2636,0.6257 -0.5991,0.6257 -0.35946,0 -0.62306,-0.26473 -0.62306,-0.6257 0,-0.33691 0.2636,-0.60164 0.62306,-0.60164 0.3355,0 0.5991,0.26473 0.5991,0.60164 z"
       style="fill:#4a99d9;fill-opacity:1;fill-rule:nonzero;stroke:none;stroke-width:0.63500464"
       inkscape:connector-curvature="0" />
    <path
       id="path1070"
       d="m 101.37203,143.7685 c 0,0.33688 -0.2636,0.62568 -0.5991,0.62568 -0.35946,0 -0.62306,-0.2888 -0.62306,-0.62568 0,-0.33691 0.2636,-0.60164 0.62306,-0.60164 0.3355,0 0.5991,0.26473 0.5991,0.60164 z"
       style="fill:#4a99d9;fill-opacity:1;fill-rule:nonzero;stroke:none;stroke-width:0.63500464"
       inkscape:connector-curvature="0" />
    <path
       id="path1072"
       d="m 99.934193,145.01987 c 0,0.33688 -0.263604,0.60161 -0.5991,0.60161 -0.335497,0 -0.623063,-0.26473 -0.623063,-0.60161 0,-0.36099 0.287566,-0.62569 0.623063,-0.62569 0.335496,0 0.5991,0.2647 0.5991,0.62569 z"
       style="fill:#4a99d9;fill-opacity:1;fill-rule:nonzero;stroke:none;stroke-width:0.63500464"
       inkscape:connector-curvature="0" />
    <path
       id="path1074"
       d="m 100.48536,145.69368 c 0,0.33691 -0.2636,0.62568 -0.599096,0.62568 -0.35946,0 -0.623064,-0.28877 -0.623064,-0.62568 0,-0.33693 0.263604,-0.60161 0.623064,-0.60161 0.335496,0 0.599096,0.26468 0.599096,0.60161 z"
       style="fill:#4a99d9;fill-opacity:1;fill-rule:nonzero;stroke:none;stroke-width:0.63500464"
       inkscape:connector-curvature="0" />
    <path
       id="path1076"
       d="m 102.33059,154.23668 c 0,0.36097 -0.28757,0.62568 -0.62306,0.62568 -0.3355,0 -0.62307,-0.26471 -0.62307,-0.62568 0,-0.33692 0.28757,-0.60164 0.62307,-0.60164 0.33549,0 0.62306,0.26472 0.62306,0.60164 z"
       style="fill:#4a99d9;fill-opacity:1;fill-rule:nonzero;stroke:none;stroke-width:0.63500464"
       inkscape:connector-curvature="0" />
    <path
       id="path1078"
       d="m 109.11241,152.43182 c 0,0.33691 -0.28757,0.62569 -0.62307,0.62569 -0.33549,0 -0.5991,-0.28878 -0.5991,-0.62569 0,-0.33691 0.26361,-0.62568 0.5991,-0.62568 0.3355,0 0.62307,0.28877 0.62307,0.62568 z"
       style="fill:#4a99d9;fill-opacity:1;fill-rule:nonzero;stroke:none;stroke-width:0.63500464"
       inkscape:connector-curvature="0" />
    <path
       id="path1080"
       d="m 110.6461,151.20453 c 0,0.33688 -0.2636,0.60161 -0.5991,0.60161 -0.33549,0 -0.62306,-0.26473 -0.62306,-0.60161 0,-0.33693 0.28757,-0.6257 0.62306,-0.6257 0.3355,0 0.5991,0.28877 0.5991,0.6257 z"
       style="fill:#4a99d9;fill-opacity:1;fill-rule:nonzero;stroke:none;stroke-width:0.63500464"
       inkscape:connector-curvature="0" />
    <path
       id="path1082"
       d="m 102.49834,159.65127 c 0,0.33688 -0.28757,0.62568 -0.62306,0.62568 -0.3355,0 -0.62307,-0.2888 -0.62307,-0.62568 0,-0.33692 0.28757,-0.62569 0.62307,-0.62569 0.33549,0 0.62306,0.28877 0.62306,0.62569 z"
       style="fill:#4a99d9;fill-opacity:1;fill-rule:nonzero;stroke:none;stroke-width:0.63500464"
       inkscape:connector-curvature="0" />
    <path
       id="path1084"
       d="m 102.42645,157.6298 c 0,0.33692 -0.28757,0.62571 -0.62307,0.62571 -0.33549,0 -0.62306,-0.28879 -0.62306,-0.62571 0,-0.33689 0.28757,-0.62566 0.62306,-0.62566 0.3355,0 0.62307,0.28877 0.62307,0.62566 z"
       style="fill:#4a99d9;fill-opacity:1;fill-rule:nonzero;stroke:none;stroke-width:0.63500464"
       inkscape:connector-curvature="0" />
    <path
       id="path1086"
       d="m 103.55276,158.25551 c 0,0.33688 -0.26361,0.60161 -0.62307,0.60161 -0.33549,0 -0.5991,-0.26473 -0.5991,-0.60161 0,-0.36099 0.26361,-0.62571 0.5991,-0.62571 0.35946,0 0.62307,0.26472 0.62307,0.62571 z"
       style="fill:#4a99d9;fill-opacity:1;fill-rule:nonzero;stroke:none;stroke-width:0.63500464"
       inkscape:connector-curvature="0" />
    <path
       id="path1088"
       d="m 101.03654,163.64602 c 0,0.3369 -0.26361,0.60161 -0.5991,0.60161 -0.35946,0 -0.623068,-0.26471 -0.623068,-0.60161 0,-0.33691 0.263608,-0.62568 0.623068,-0.62568 0.33549,0 0.5991,0.28877 0.5991,0.62568 z"
       style="fill:#4a99d9;fill-opacity:1;fill-rule:nonzero;stroke:none;stroke-width:0.63500464"
       inkscape:connector-curvature="0" />
    <path
       id="path1090"
       d="m 96.387521,169.18092 c 0,0.33691 -0.287568,0.62569 -0.623064,0.62569 -0.335496,0 -0.623064,-0.28878 -0.623064,-0.62569 0,-0.33692 0.287568,-0.62568 0.623064,-0.62568 0.335496,0 0.623064,0.28876 0.623064,0.62568 z"
       style="fill:#4a99d9;fill-opacity:1;fill-rule:nonzero;stroke:none;stroke-width:0.63500464"
       inkscape:connector-curvature="0" />
    <path
       id="path1092"
       d="m 96.98662,173.58478 c 0,0.36097 -0.263604,0.62568 -0.599099,0.62568 -0.35946,0 -0.623064,-0.26471 -0.623064,-0.62568 0,-0.33691 0.263604,-0.60164 0.623064,-0.60164 0.335495,0 0.599099,0.26473 0.599099,0.60164 z"
       style="fill:#4a99d9;fill-opacity:1;fill-rule:nonzero;stroke:none;stroke-width:0.63500464"
       inkscape:connector-curvature="0" />
    <path
       id="path1094"
       d="m 101.20429,173.58478 c 0,0.36097 -0.28757,0.62568 -0.62307,0.62568 -0.3355,0 -0.623063,-0.26471 -0.623063,-0.62568 0,-0.33691 0.287563,-0.60164 0.623063,-0.60164 0.3355,0 0.62307,0.26473 0.62307,0.60164 z"
       style="fill:#4a99d9;fill-opacity:1;fill-rule:nonzero;stroke:none;stroke-width:0.63500464"
       inkscape:connector-curvature="0" />
    <path
       id="path1096"
       d="m 104.17582,174.33079 c 0,0.33691 -0.2636,0.6016 -0.5991,0.6016 -0.3355,0 -0.62306,-0.26469 -0.62306,-0.6016 0,-0.36097 0.28756,-0.6257 0.62306,-0.6257 0.3355,0 0.5991,0.26473 0.5991,0.6257 z"
       style="fill:#4a99d9;fill-opacity:1;fill-rule:nonzero;stroke:none;stroke-width:0.63500464"
       inkscape:connector-curvature="0" />
    <path
       id="path1098"
       d="m 102.95366,176.28003 c 0,0.33691 -0.26361,0.62568 -0.62307,0.62568 -0.33549,0 -0.5991,-0.28877 -0.5991,-0.62568 0,-0.3369 0.26361,-0.62569 0.5991,-0.62569 0.35946,0 0.62307,0.28879 0.62307,0.62569 z"
       style="fill:#4a99d9;fill-opacity:1;fill-rule:nonzero;stroke:none;stroke-width:0.63500464"
       inkscape:connector-curvature="0" />
    <path
       id="path1100"
       d="m 94.997608,179.26406 c 0,0.33692 -0.287568,0.62569 -0.623064,0.62569 -0.335495,0 -0.623063,-0.28877 -0.623063,-0.62569 0,-0.33691 0.287568,-0.62568 0.623063,-0.62568 0.335496,0 0.623064,0.28877 0.623064,0.62568 z"
       style="fill:#4a99d9;fill-opacity:1;fill-rule:nonzero;stroke:none;stroke-width:0.63500464"
       inkscape:connector-curvature="0" />
    <path
       id="path1102"
       d="m 89.821384,180.49136 c 0,0.33691 -0.263602,0.62568 -0.623064,0.62568 -0.335495,0 -0.599099,-0.28877 -0.599099,-0.62568 0,-0.33689 0.263604,-0.60161 0.599099,-0.60161 0.359462,0 0.623064,0.26472 0.623064,0.60161 z"
       style="fill:#4a99d9;fill-opacity:1;fill-rule:nonzero;stroke:none;stroke-width:0.63500464"
       inkscape:connector-curvature="0" />
    <path
       id="path1104"
       d="m 93.200309,188.40869 c 0,0.33691 -0.28757,0.62568 -0.623065,0.62568 -0.335497,0 -0.599101,-0.28877 -0.599101,-0.62568 0,-0.33693 0.263604,-0.62569 0.599101,-0.62569 0.335495,0 0.623065,0.28876 0.623065,0.62569 z"
       style="fill:#4a99d9;fill-opacity:1;fill-rule:nonzero;stroke:none;stroke-width:0.63500464"
       inkscape:connector-curvature="0" />
    <path
       id="path1106"
       d="m 94.063013,191.29646 c 0,0.36099 -0.263604,0.62568 -0.599101,0.62568 -0.35946,0 -0.623063,-0.26469 -0.623063,-0.62568 0,-0.3369 0.263603,-0.60162 0.623063,-0.60162 0.335497,0 0.599101,0.26472 0.599101,0.60162 z"
       style="fill:#4a99d9;fill-opacity:1;fill-rule:nonzero;stroke:none;stroke-width:0.63500464"
       inkscape:connector-curvature="0" />
    <path
       id="path1108"
       d="m 95.30914,195.09871 c 0,0.33688 -0.287568,0.62568 -0.623063,0.62568 -0.335497,0 -0.623064,-0.2888 -0.623064,-0.62568 0,-0.33691 0.287567,-0.60164 0.623064,-0.60164 0.335495,0 0.623063,0.26473 0.623063,0.60164 z"
       style="fill:#4a99d9;fill-opacity:1;fill-rule:nonzero;stroke:none;stroke-width:0.63500464"
       inkscape:connector-curvature="0" />
    <path
       id="path1110"
       d="m 92.265711,198.46775 c 0,0.36099 -0.287568,0.62572 -0.623063,0.62572 -0.335496,0 -0.623064,-0.26473 -0.623064,-0.62572 0,-0.33688 0.287568,-0.60161 0.623064,-0.60161 0.335495,0 0.623063,0.26473 0.623063,0.60161 z"
       style="fill:#4a99d9;fill-opacity:1;fill-rule:nonzero;stroke:none;stroke-width:0.63500464"
       inkscape:connector-curvature="0" />
    <path
       id="path1112"
       d="m 99.790407,194.49707 c 0,0.33691 -0.287568,0.60164 -0.623063,0.60164 -0.335496,0 -0.623064,-0.26473 -0.623064,-0.60164 0,-0.36096 0.287568,-0.62568 0.623064,-0.62568 0.335495,0 0.623063,0.26472 0.623063,0.62568 z"
       style="fill:#4a99d9;fill-opacity:1;fill-rule:nonzero;stroke:none;stroke-width:0.63500464"
       inkscape:connector-curvature="0" />
    <path
       id="path1114"
       d="m 100.22176,200.10419 c 0,0.33688 -0.287567,0.62568 -0.623063,0.62568 -0.335497,0 -0.599101,-0.2888 -0.599101,-0.62568 0,-0.33692 0.263604,-0.62569 0.599101,-0.62569 0.335496,0 0.623063,0.28877 0.623063,0.62569 z"
       style="fill:#4a99d9;fill-opacity:1;fill-rule:nonzero;stroke:none;stroke-width:0.63500464"
       inkscape:connector-curvature="0" />
    <path
       id="path1116"
       d="m 93.919228,204.24333 c 0,0.33688 -0.287566,0.62568 -0.623064,0.62568 -0.335496,0 -0.623064,-0.2888 -0.623064,-0.62568 0,-0.33691 0.287568,-0.60161 0.623064,-0.60161 0.335498,0 0.623064,0.2647 0.623064,0.60161 z"
       style="fill:#4a99d9;fill-opacity:1;fill-rule:nonzero;stroke:none;stroke-width:0.63500464"
       inkscape:connector-curvature="0" />
    <path
       id="path1118"
       d="m 87.305165,210.06699 c 0,0.36099 -0.287567,0.62568 -0.623064,0.62568 -0.335496,0 -0.623064,-0.26469 -0.623064,-0.62568 0,-0.33688 0.287568,-0.60161 0.623064,-0.60161 0.335497,0 0.623064,0.26473 0.623064,0.60161 z"
       style="fill:#4a99d9;fill-opacity:1;fill-rule:nonzero;stroke:none;stroke-width:0.63500464"
       inkscape:connector-curvature="0" />
    <path
       id="path1120"
       d="m 86.514353,212.44942 c 0,0.33691 -0.263604,0.60162 -0.5991,0.60162 -0.335497,0 -0.623063,-0.26471 -0.623063,-0.60162 0,-0.36096 0.287566,-0.62569 0.623063,-0.62569 0.335496,0 0.5991,0.26473 0.5991,0.62569 z"
       style="fill:#4a99d9;fill-opacity:1;fill-rule:nonzero;stroke:none;stroke-width:0.63500464"
       inkscape:connector-curvature="0" />
    <path
       id="path1122"
       d="m 86.873813,213.31575 c 0,0.36096 -0.263604,0.62569 -0.623064,0.62569 -0.335496,0 -0.599099,-0.26473 -0.599099,-0.62569 0,-0.33691 0.263603,-0.60161 0.599099,-0.60161 0.35946,0 0.623064,0.2647 0.623064,0.60161 z"
       style="fill:#4a99d9;fill-opacity:1;fill-rule:nonzero;stroke:none;stroke-width:0.63500464"
       inkscape:connector-curvature="0" />
    <path
       id="path1124"
       d="m 92.888775,217.50302 c 0,0.33691 -0.263604,0.62568 -0.623064,0.62568 -0.335495,0 -0.599099,-0.28877 -0.599099,-0.62568 0,-0.33691 0.263604,-0.60161 0.599099,-0.60161 0.35946,0 0.623064,0.2647 0.623064,0.60161 z"
       style="fill:#4a99d9;fill-opacity:1;fill-rule:nonzero;stroke:none;stroke-width:0.63500464"
       inkscape:connector-curvature="0" />
    <path
       id="path1126"
       d="m 96.171846,213.53234 c 0,0.33691 -0.287571,0.62568 -0.623064,0.62568 -0.335498,0 -0.599102,-0.28877 -0.599102,-0.62568 0,-0.33693 0.263604,-0.62569 0.599102,-0.62569 0.335493,0 0.623064,0.28876 0.623064,0.62569 z"
       style="fill:#4a99d9;fill-opacity:1;fill-rule:nonzero;stroke:none;stroke-width:0.63500464"
       inkscape:connector-curvature="0" />
    <path
       id="path1128"
       d="m 95.932204,210.59644 c 0,0.36096 -0.263603,0.62566 -0.599099,0.62566 -0.359462,0 -0.623065,-0.2647 -0.623065,-0.62566 0,-0.33691 0.263603,-0.60164 0.623065,-0.60164 0.335496,0 0.599099,0.26473 0.599099,0.60164 z"
       style="fill:#4a99d9;fill-opacity:1;fill-rule:nonzero;stroke:none;stroke-width:0.63500464"
       inkscape:connector-curvature="0" />
    <path
       id="path1130"
       d="m 105.61366,206.79419 c 0,0.33691 -0.28757,0.62569 -0.62306,0.62569 -0.3355,0 -0.62307,-0.28878 -0.62307,-0.62569 0,-0.33692 0.28757,-0.62568 0.62307,-0.62568 0.33549,0 0.62306,0.28876 0.62306,0.62568 z"
       style="fill:#4a99d9;fill-opacity:1;fill-rule:nonzero;stroke:none;stroke-width:0.63500464"
       inkscape:connector-curvature="0" />
    <path
       id="path1132"
       d="m 104.15186,204.86901 c 0,0.33689 -0.26361,0.62569 -0.62307,0.62569 -0.33549,0 -0.5991,-0.2888 -0.5991,-0.62569 0,-0.33691 0.26361,-0.62568 0.5991,-0.62568 0.35946,0 0.62307,0.28877 0.62307,0.62568 z"
       style="fill:#4a99d9;fill-opacity:1;fill-rule:nonzero;stroke:none;stroke-width:0.63500464"
       inkscape:connector-curvature="0" />
    <path
       id="path1134"
       d="m 115.60665,199.55069 c 0,0.33689 -0.28757,0.62568 -0.62307,0.62568 -0.33549,0 -0.62306,-0.28879 -0.62306,-0.62568 0,-0.33691 0.28757,-0.62569 0.62306,-0.62569 0.3355,0 0.62307,0.28878 0.62307,0.62569 z"
       style="fill:#4a99d9;fill-opacity:1;fill-rule:nonzero;stroke:none;stroke-width:0.63500464"
       inkscape:connector-curvature="0" />
    <path
       id="path1136"
       d="m 111.79637,197.26453 c 0,0.33692 -0.2636,0.62569 -0.5991,0.62569 -0.35946,0 -0.62306,-0.28877 -0.62306,-0.62569 0,-0.33691 0.2636,-0.62568 0.62306,-0.62568 0.3355,0 0.5991,0.28877 0.5991,0.62568 z"
       style="fill:#4a99d9;fill-opacity:1;fill-rule:nonzero;stroke:none;stroke-width:0.63500464"
       inkscape:connector-curvature="0" />
    <path
       id="path1138"
       d="m 112.61115,192.86067 c 0,0.33691 -0.2636,0.62568 -0.5991,0.62568 -0.35946,0 -0.62306,-0.28877 -0.62306,-0.62568 0,-0.33689 0.2636,-0.60161 0.62306,-0.60161 0.3355,0 0.5991,0.26472 0.5991,0.60161 z"
       style="fill:#4a99d9;fill-opacity:1;fill-rule:nonzero;stroke:none;stroke-width:0.63500464"
       inkscape:connector-curvature="0" />
    <path
       id="path1140"
       d="m 112.01205,189.82851 c 0,0.36097 -0.28757,0.62568 -0.62306,0.62568 -0.3355,0 -0.62307,-0.26471 -0.62307,-0.62568 0,-0.33692 0.28757,-0.60161 0.62307,-0.60161 0.33549,0 0.62306,0.26469 0.62306,0.60161 z"
       style="fill:#4a99d9;fill-opacity:1;fill-rule:nonzero;stroke:none;stroke-width:0.63500464"
       inkscape:connector-curvature="0" />
    <path
       id="path1142"
       d="m 119.6326,184.02889 c 0,0.36099 -0.2636,0.62569 -0.5991,0.62569 -0.35946,0 -0.62306,-0.2647 -0.62306,-0.62569 0,-0.33691 0.2636,-0.60162 0.62306,-0.60162 0.3355,0 0.5991,0.26471 0.5991,0.60162 z"
       style="fill:#4a99d9;fill-opacity:1;fill-rule:nonzero;stroke:none;stroke-width:0.63500464"
       inkscape:connector-curvature="0" />
    <path
       id="path1144"
       d="m 118.74593,180.51543 c 0,0.36096 -0.28757,0.62569 -0.62306,0.62569 -0.3355,0 -0.62306,-0.26473 -0.62306,-0.62569 0,-0.33691 0.28756,-0.60162 0.62306,-0.60162 0.33549,0 0.62306,0.26471 0.62306,0.60162 z"
       style="fill:#4a99d9;fill-opacity:1;fill-rule:nonzero;stroke:none;stroke-width:0.63500464"
       inkscape:connector-curvature="0" />
    <path
       id="path1146"
       d="m 91.666612,218.9469 c 0,0.36097 -0.287568,0.6257 -0.623064,0.6257 -0.335497,0 -0.623063,-0.26473 -0.623063,-0.6257 0,-0.3369 0.287566,-0.60162 0.623063,-0.60162 0.335496,0 0.623064,0.26472 0.623064,0.60162 z"
       style="fill:#4a99d9;fill-opacity:1;fill-rule:nonzero;stroke:none;stroke-width:0.63500464"
       inkscape:connector-curvature="0" />
    <path
       id="path1148"
       d="m 95.90824,223.08606 c 0,0.33689 -0.287568,0.62568 -0.623064,0.62568 -0.335496,0 -0.623064,-0.28879 -0.623064,-0.62568 0,-0.33691 0.287568,-0.62569 0.623064,-0.62569 0.335496,0 0.623064,0.28878 0.623064,0.62569 z"
       style="fill:#4a99d9;fill-opacity:1;fill-rule:nonzero;stroke:none;stroke-width:0.63500464"
       inkscape:connector-curvature="0" />
    <path
       id="path1150"
       d="m 96.387521,225.01123 c 0,0.33692 -0.263604,0.60161 -0.5991,0.60161 -0.35946,0 -0.623063,-0.26469 -0.623063,-0.60161 0,-0.33691 0.263603,-0.62568 0.623063,-0.62568 0.335496,0 0.5991,0.28877 0.5991,0.62568 z"
       style="fill:#4a99d9;fill-opacity:1;fill-rule:nonzero;stroke:none;stroke-width:0.63500464"
       inkscape:connector-curvature="0" />
    <path
       id="path1152"
       d="m 89.437961,218.46562 c 0,0.33689 -0.263604,0.60162 -0.599101,0.60162 -0.35946,0 -0.623064,-0.26473 -0.623064,-0.60162 0,-0.33692 0.263604,-0.62569 0.623064,-0.62569 0.335497,0 0.599101,0.28877 0.599101,0.62569 z"
       style="fill:#4a99d9;fill-opacity:1;fill-rule:nonzero;stroke:none;stroke-width:0.63500464"
       inkscape:connector-curvature="0" />
    <path
       id="path1154"
       d="m 90.061024,221.04054 c 0,0.3369 -0.287568,0.6257 -0.623063,0.6257 -0.335497,0 -0.599101,-0.2888 -0.599101,-0.6257 0,-0.33691 0.263604,-0.62567 0.599101,-0.62567 0.335495,0 0.623063,0.28876 0.623063,0.62567 z"
       style="fill:#4a99d9;fill-opacity:1;fill-rule:nonzero;stroke:none;stroke-width:0.63500464"
       inkscape:connector-curvature="0" />
    <path
       id="path1156"
       d="m 86.825884,221.66624 c 0,0.33691 -0.287567,0.60161 -0.623064,0.60161 -0.335496,0 -0.623064,-0.2647 -0.623064,-0.60161 0,-0.36099 0.287568,-0.6257 0.623064,-0.6257 0.335497,0 0.623064,0.26471 0.623064,0.6257 z"
       style="fill:#4a99d9;fill-opacity:1;fill-rule:nonzero;stroke:none;stroke-width:0.63500464"
       inkscape:connector-curvature="0" />
    <path
       id="path1158"
       d="m 80.6911,218.61 c 0,0.36096 -0.263603,0.62569 -0.599099,0.62569 -0.335495,0 -0.623064,-0.26473 -0.623064,-0.62569 0,-0.33691 0.287569,-0.60161 0.623064,-0.60161 0.335496,0 0.599099,0.2647 0.599099,0.60161 z"
       style="fill:#4a99d9;fill-opacity:1;fill-rule:nonzero;stroke:none;stroke-width:0.63500464"
       inkscape:connector-curvature="0" />
    <path
       id="path1160"
       d="m 81.002633,223.11011 c 0,0.36098 -0.287568,0.62568 -0.623064,0.62568 -0.335497,0 -0.5991,-0.2647 -0.5991,-0.62568 0,-0.33689 0.263603,-0.60161 0.5991,-0.60161 0.335496,0 0.623064,0.26472 0.623064,0.60161 z"
       style="fill:#4a99d9;fill-opacity:1;fill-rule:nonzero;stroke:none;stroke-width:0.63500464"
       inkscape:connector-curvature="0" />
    <path
       id="path1162"
       d="m 84.381558,225.1797 c 0,0.33691 -0.287568,0.62567 -0.623064,0.62567 -0.335497,0 -0.623064,-0.28876 -0.623064,-0.62567 0,-0.33693 0.287567,-0.60162 0.623064,-0.60162 0.335496,0 0.623064,0.26469 0.623064,0.60162 z"
       style="fill:#4a99d9;fill-opacity:1;fill-rule:nonzero;stroke:none;stroke-width:0.63500464"
       inkscape:connector-curvature="0" />
    <path
       id="path1164"
       d="m 85.244261,226.62359 c 0,0.33689 -0.287568,0.60161 -0.623064,0.60161 -0.335496,0 -0.623064,-0.26472 -0.623064,-0.60161 0,-0.33692 0.287568,-0.62571 0.623064,-0.62571 0.335496,0 0.623064,0.28879 0.623064,0.62571 z"
       style="fill:#4a99d9;fill-opacity:1;fill-rule:nonzero;stroke:none;stroke-width:0.63500464"
       inkscape:connector-curvature="0" />
    <path
       id="path1166"
       d="m 85.148404,227.73055 c 0,0.33691 -0.263603,0.62568 -0.623064,0.62568 -0.335497,0 -0.5991,-0.28877 -0.5991,-0.62568 0,-0.3369 0.263603,-0.62569 0.5991,-0.62569 0.359461,0 0.623064,0.28879 0.623064,0.62569 z"
       style="fill:#4a99d9;fill-opacity:1;fill-rule:nonzero;stroke:none;stroke-width:0.63500464"
       inkscape:connector-curvature="0" />
    <path
       id="path1168"
       d="m 84.09399,227.2252 c 0,0.36096 -0.263607,0.62569 -0.623067,0.62569 -0.335493,0 -0.599099,-0.26473 -0.599099,-0.62569 0,-0.33691 0.263606,-0.60161 0.599099,-0.60161 0.35946,0 0.623067,0.2647 0.623067,0.60161 z"
       style="fill:#4a99d9;fill-opacity:1;fill-rule:nonzero;stroke:none;stroke-width:0.63500464"
       inkscape:connector-curvature="0" />
    <path
       id="path1170"
       d="m 79.109477,226.14228 c 0,0.3369 -0.287568,0.6257 -0.623063,0.6257 -0.335497,0 -0.623064,-0.2888 -0.623064,-0.6257 0,-0.33691 0.287567,-0.62567 0.623064,-0.62567 0.335495,0 0.623063,0.28876 0.623063,0.62567 z"
       style="fill:#4a99d9;fill-opacity:1;fill-rule:nonzero;stroke:none;stroke-width:0.63500464"
       inkscape:connector-curvature="0" />
    <path
       id="path1172"
       d="m 73.430011,225.66098 c 0,0.3369 -0.263607,0.62569 -0.599102,0.62569 -0.335495,0 -0.623064,-0.28879 -0.623064,-0.62569 0,-0.33691 0.287569,-0.62568 0.623064,-0.62568 0.335495,0 0.599102,0.28877 0.599102,0.62568 z"
       style="fill:#4a99d9;fill-opacity:1;fill-rule:nonzero;stroke:none;stroke-width:0.63500464"
       inkscape:connector-curvature="0" />
    <path
       id="path1174"
       d="m 70.003157,231.00337 c 0,0.3369 -0.263604,0.60162 -0.599099,0.60162 -0.335496,0 -0.623064,-0.26472 -0.623064,-0.60162 0,-0.36097 0.287568,-0.62567 0.623064,-0.62567 0.335495,0 0.599099,0.2647 0.599099,0.62567 z"
       style="fill:#4a99d9;fill-opacity:1;fill-rule:nonzero;stroke:none;stroke-width:0.63500464"
       inkscape:connector-curvature="0" />
    <path
       id="path1176"
       d="m 74.676138,229.75199 c 0,0.33691 -0.287568,0.62571 -0.623064,0.62571 -0.335495,0 -0.623063,-0.2888 -0.623063,-0.62571 0,-0.3369 0.287568,-0.60161 0.623063,-0.60161 0.335496,0 0.623064,0.26471 0.623064,0.60161 z"
       style="fill:#4a99d9;fill-opacity:1;fill-rule:nonzero;stroke:none;stroke-width:0.63500464"
       inkscape:connector-curvature="0" />
    <path
       id="path1178"
       d="m 78.989656,239.28166 c 0,0.36097 -0.263603,0.6257 -0.599099,0.6257 -0.359461,0 -0.623065,-0.26473 -0.623065,-0.6257 0,-0.33691 0.263604,-0.60164 0.623065,-0.60164 0.335496,0 0.599099,0.26473 0.599099,0.60164 z"
       style="fill:#4a99d9;fill-opacity:1;fill-rule:nonzero;stroke:none;stroke-width:0.63500464"
       inkscape:connector-curvature="0" />
    <path
       id="path1180"
       d="m 85.963181,240.53303 c 0,0.3369 -0.287568,0.60162 -0.623064,0.60162 -0.335495,0 -0.623064,-0.26472 -0.623064,-0.60162 0,-0.33691 0.287569,-0.62567 0.623064,-0.62567 0.335496,0 0.623064,0.28876 0.623064,0.62567 z"
       style="fill:#4a99d9;fill-opacity:1;fill-rule:nonzero;stroke:none;stroke-width:0.63500464"
       inkscape:connector-curvature="0" />
    <path
       id="path1182"
       d="m 85.340117,243.13202 c 0,0.36098 -0.263603,0.62571 -0.623064,0.62571 -0.335495,0 -0.599099,-0.26473 -0.599099,-0.62571 0,-0.3369 0.263604,-0.60161 0.599099,-0.60161 0.359461,0 0.623064,0.26471 0.623064,0.60161 z"
       style="fill:#4a99d9;fill-opacity:1;fill-rule:nonzero;stroke:none;stroke-width:0.63500464"
       inkscape:connector-curvature="0" />
    <path
       id="path1184"
       d="m 83.710565,243.85396 c 0,0.36099 -0.287568,0.62569 -0.623064,0.62569 -0.335495,0 -0.599099,-0.2647 -0.599099,-0.62569 0,-0.33689 0.263604,-0.60161 0.599099,-0.60161 0.335496,0 0.623064,0.26472 0.623064,0.60161 z"
       style="fill:#4a99d9;fill-opacity:1;fill-rule:nonzero;stroke:none;stroke-width:0.63500464"
       inkscape:connector-curvature="0" />
    <path
       id="path1186"
       d="m 86.658138,245.58663 c 0,0.33691 -0.263606,0.60161 -0.623064,0.60161 -0.335497,0 -0.599102,-0.2647 -0.599102,-0.60161 0,-0.36096 0.263605,-0.62568 0.599102,-0.62568 0.359458,0 0.623064,0.26472 0.623064,0.62568 z"
       style="fill:#4a99d9;fill-opacity:1;fill-rule:nonzero;stroke:none;stroke-width:0.63500464"
       inkscape:connector-curvature="0" />
    <path
       id="path1188"
       d="m 87.448947,247.46369 c 0,0.33691 -0.263603,0.62568 -0.623063,0.62568 -0.335496,0 -0.5991,-0.28877 -0.5991,-0.62568 0,-0.33692 0.263604,-0.62569 0.5991,-0.62569 0.35946,0 0.623063,0.28877 0.623063,0.62569 z"
       style="fill:#4a99d9;fill-opacity:1;fill-rule:nonzero;stroke:none;stroke-width:0.63500464"
       inkscape:connector-curvature="0" />
    <path
       id="path1190"
       d="m 88.958681,248.61879 c 0,0.33691 -0.287569,0.60164 -0.623064,0.60164 -0.335498,0 -0.623066,-0.26473 -0.623066,-0.60164 0,-0.33689 0.287568,-0.62568 0.623066,-0.62568 0.335495,0 0.623064,0.28879 0.623064,0.62568 z"
       style="fill:#4a99d9;fill-opacity:1;fill-rule:nonzero;stroke:none;stroke-width:0.63500464"
       inkscape:connector-curvature="0" />
    <path
       id="path1192"
       d="m 93.415985,251.72317 c 0,0.33688 -0.287568,0.62568 -0.623064,0.62568 -0.335497,0 -0.623064,-0.2888 -0.623064,-0.62568 0,-0.33693 0.287567,-0.62569 0.623064,-0.62569 0.335496,0 0.623064,0.28876 0.623064,0.62569 z"
       style="fill:#4a99d9;fill-opacity:1;fill-rule:nonzero;stroke:none;stroke-width:0.63500464"
       inkscape:connector-curvature="0" />
    <path
       id="path1194"
       d="m 100.82086,254.4184 c 0,0.33693 -0.2636,0.62569 -0.62306,0.62569 -0.335501,0 -0.599103,-0.28876 -0.599103,-0.62569 0,-0.33688 0.263602,-0.62568 0.599103,-0.62568 0.35946,0 0.62306,0.2888 0.62306,0.62568 z"
       style="fill:#4a99d9;fill-opacity:1;fill-rule:nonzero;stroke:none;stroke-width:0.63500464"
       inkscape:connector-curvature="0" />
    <path
       id="path1196"
       d="m 99.598697,246.57328 c 0,0.36098 -0.287568,0.62568 -0.623065,0.62568 -0.335496,0 -0.623064,-0.2647 -0.623064,-0.62568 0,-0.33689 0.287568,-0.60161 0.623064,-0.60161 0.335497,0 0.623065,0.26472 0.623065,0.60161 z"
       style="fill:#4a99d9;fill-opacity:1;fill-rule:nonzero;stroke:none;stroke-width:0.63500464"
       inkscape:connector-curvature="0" />
    <path
       id="path1198"
       d="m 104.19979,250.27926 c 0,0.36097 -0.26361,0.6257 -0.59911,0.6257 -0.35946,0 -0.62306,-0.26473 -0.62306,-0.6257 0,-0.33688 0.2636,-0.60161 0.62306,-0.60161 0.3355,0 0.59911,0.26473 0.59911,0.60161 z"
       style="fill:#4a99d9;fill-opacity:1;fill-rule:nonzero;stroke:none;stroke-width:0.63500464"
       inkscape:connector-curvature="0" />
    <path
       id="path1200"
       d="m 108.10592,249.55731 c 0,0.36099 -0.28757,0.62569 -0.62307,0.62569 -0.33549,0 -0.62306,-0.2647 -0.62306,-0.62569 0,-0.33688 0.28757,-0.60161 0.62306,-0.60161 0.3355,0 0.62307,0.26473 0.62307,0.60161 z"
       style="fill:#4a99d9;fill-opacity:1;fill-rule:nonzero;stroke:none;stroke-width:0.63500464"
       inkscape:connector-curvature="0" />
    <path
       id="path1202"
       d="m 107.33907,253.79272 c 0,0.36099 -0.28757,0.62568 -0.62306,0.62568 -0.3355,0 -0.62307,-0.26469 -0.62307,-0.62568 0,-0.33691 0.28757,-0.60161 0.62307,-0.60161 0.33549,0 0.62306,0.2647 0.62306,0.60161 z"
       style="fill:#4a99d9;fill-opacity:1;fill-rule:nonzero;stroke:none;stroke-width:0.63500464"
       inkscape:connector-curvature="0" />
    <path
       id="path1204"
       d="m 116.66106,252.56543 c 0,0.33691 -0.28756,0.62568 -0.62306,0.62568 -0.3355,0 -0.62306,-0.28877 -0.62306,-0.62568 0,-0.33692 0.28756,-0.62569 0.62306,-0.62569 0.3355,0 0.62306,0.28877 0.62306,0.62569 z"
       style="fill:#4a99d9;fill-opacity:1;fill-rule:nonzero;stroke:none;stroke-width:0.63500464"
       inkscape:connector-curvature="0" />
    <path
       id="path1206"
       d="m 115.31908,250.03861 c 0,0.33691 -0.2636,0.60162 -0.62306,0.60162 -0.3355,0 -0.5991,-0.26471 -0.5991,-0.60162 0,-0.33688 0.2636,-0.62567 0.5991,-0.62567 0.35946,0 0.62306,0.28879 0.62306,0.62567 z"
       style="fill:#4a99d9;fill-opacity:1;fill-rule:nonzero;stroke:none;stroke-width:0.63500464"
       inkscape:connector-curvature="0" />
    <path
       id="path1208"
       d="m 84.573268,253.52801 c 0,0.33691 -0.287567,0.60162 -0.623064,0.60162 -0.335495,0 -0.623063,-0.26471 -0.623063,-0.60162 0,-0.36096 0.287568,-0.62567 0.623063,-0.62567 0.335497,0 0.623064,0.26471 0.623064,0.62567 z"
       style="fill:#4a99d9;fill-opacity:1;fill-rule:nonzero;stroke:none;stroke-width:0.63500464"
       inkscape:connector-curvature="0" />
    <path
       id="path1210"
       d="m 87.688589,238.68002 c 0,0.33693 -0.263605,0.60164 -0.599102,0.60164 -0.335495,0 -0.623063,-0.26471 -0.623063,-0.60164 0,-0.33688 0.287568,-0.62568 0.623063,-0.62568 0.335497,0 0.599102,0.2888 0.599102,0.62568 z"
       style="fill:#4a99d9;fill-opacity:1;fill-rule:nonzero;stroke:none;stroke-width:0.63500464"
       inkscape:connector-curvature="0" />
    <path
       id="path1212"
       d="m 86.466424,235.6238 c 0,0.33691 -0.263604,0.62568 -0.623064,0.62568 -0.335496,0 -0.599099,-0.28877 -0.599099,-0.62568 0,-0.3369 0.263603,-0.62566 0.599099,-0.62566 0.35946,0 0.623064,0.28876 0.623064,0.62566 z"
       style="fill:#4a99d9;fill-opacity:1;fill-rule:nonzero;stroke:none;stroke-width:0.63500464"
       inkscape:connector-curvature="0" />
    <path
       id="path1214"
       d="m 89.533817,236.51421 c 0,0.33691 -0.263603,0.62568 -0.5991,0.62568 -0.335496,0 -0.623065,-0.28877 -0.623065,-0.62568 0,-0.33691 0.287569,-0.60162 0.623065,-0.60162 0.335497,0 0.5991,0.26471 0.5991,0.60162 z"
       style="fill:#4a99d9;fill-opacity:1;fill-rule:nonzero;stroke:none;stroke-width:0.63500464"
       inkscape:connector-curvature="0" />
    <path
       id="path1216"
       d="m 92.744992,234.15586 c 0,0.33691 -0.263603,0.60162 -0.599099,0.60162 -0.35946,0 -0.623064,-0.26471 -0.623064,-0.60162 0,-0.36096 0.263604,-0.62569 0.623064,-0.62569 0.335496,0 0.599099,0.26473 0.599099,0.62569 z"
       style="fill:#4a99d9;fill-opacity:1;fill-rule:nonzero;stroke:none;stroke-width:0.63500464"
       inkscape:connector-curvature="0" />
    <path
       id="path1218"
       d="m 97.705541,232.71198 c 0,0.33688 -0.263603,0.62568 -0.5991,0.62568 -0.35946,0 -0.623064,-0.2888 -0.623064,-0.62568 0,-0.33692 0.263604,-0.62569 0.623064,-0.62569 0.335497,0 0.5991,0.28877 0.5991,0.62569 z"
       style="fill:#4a99d9;fill-opacity:1;fill-rule:nonzero;stroke:none;stroke-width:0.63500464"
       inkscape:connector-curvature="0" />
    <path
       id="path1220"
       d="m 91.450936,238.48753 c 0,0.33691 -0.263602,0.60161 -0.599099,0.60161 -0.335496,0 -0.623064,-0.2647 -0.623064,-0.60161 0,-0.36099 0.287568,-0.62569 0.623064,-0.62569 0.335497,0 0.599099,0.2647 0.599099,0.62569 z"
       style="fill:#4a99d9;fill-opacity:1;fill-rule:nonzero;stroke:none;stroke-width:0.63500464"
       inkscape:connector-curvature="0" />
    <path
       id="path1222"
       d="m 79.253263,218.61 c 0,0.36096 -0.263607,0.62569 -0.599101,0.62569 -0.35946,0 -0.623066,-0.26473 -0.623066,-0.62569 0,-0.33691 0.263606,-0.60161 0.623066,-0.60161 0.335494,0 0.599101,0.2647 0.599101,0.60161 z"
       style="fill:#4a99d9;fill-opacity:1;fill-rule:nonzero;stroke:none;stroke-width:0.63500464"
       inkscape:connector-curvature="0" />
    <path
       id="path1224"
       d="m 99.550768,191.17615 c 0,0.33688 -0.263603,0.62567 -0.599099,0.62567 -0.35946,0 -0.623064,-0.28879 -0.623064,-0.62567 0,-0.33692 0.263604,-0.6257 0.623064,-0.6257 0.335496,0 0.599099,0.28878 0.599099,0.6257 z"
       style="fill:#4a99d9;fill-opacity:1;fill-rule:nonzero;stroke:none;stroke-width:0.63500464"
       inkscape:connector-curvature="0" />
    <path
       id="path1226"
       d="m 101.68356,193.14947 c 0,0.33688 -0.2636,0.62568 -0.5991,0.62568 -0.33549,0 -0.62306,-0.2888 -0.62306,-0.62568 0,-0.33693 0.28757,-0.62569 0.62306,-0.62569 0.3355,0 0.5991,0.28876 0.5991,0.62569 z"
       style="fill:#4a99d9;fill-opacity:1;fill-rule:nonzero;stroke:none;stroke-width:0.63500464"
       inkscape:connector-curvature="0" />
    <path
       id="path1228"
       d="m 105.80537,190.91142 c 0,0.33692 -0.2636,0.60161 -0.62306,0.60161 -0.3355,0 -0.5991,-0.26469 -0.5991,-0.60161 0,-0.36097 0.2636,-0.62568 0.5991,-0.62568 0.35946,0 0.62306,0.26471 0.62306,0.62568 z"
       style="fill:#4a99d9;fill-opacity:1;fill-rule:nonzero;stroke:none;stroke-width:0.63500464"
       inkscape:connector-curvature="0" />
    <path
       id="path1230"
       d="m 103.36104,186.29098 c 0,0.33691 -0.2636,0.62569 -0.62306,0.62569 -0.3355,0 -0.5991,-0.28878 -0.5991,-0.62569 0,-0.33691 0.2636,-0.62568 0.5991,-0.62568 0.35946,0 0.62306,0.28877 0.62306,0.62568 z"
       style="fill:#4a99d9;fill-opacity:1;fill-rule:nonzero;stroke:none;stroke-width:0.63500464"
       inkscape:connector-curvature="0" />
    <path
       id="path1232"
       d="m 103.07348,184.38988 c 0,0.33689 -0.28757,0.62569 -0.62307,0.62569 -0.33549,0 -0.62306,-0.2888 -0.62306,-0.62569 0,-0.33691 0.28757,-0.62571 0.62306,-0.62571 0.3355,0 0.62307,0.2888 0.62307,0.62571 z"
       style="fill:#4a99d9;fill-opacity:1;fill-rule:nonzero;stroke:none;stroke-width:0.63500464"
       inkscape:connector-curvature="0" />
    <path
       id="path1234"
       d="m 109.47186,183.13848 c 0,0.36099 -0.28756,0.62569 -0.62306,0.62569 -0.3355,0 -0.62306,-0.2647 -0.62306,-0.62569 0,-0.33688 0.28756,-0.60161 0.62306,-0.60161 0.3355,0 0.62306,0.26473 0.62306,0.60161 z"
       style="fill:#4a99d9;fill-opacity:1;fill-rule:nonzero;stroke:none;stroke-width:0.63500464"
       inkscape:connector-curvature="0" />
    <path
       id="path1236"
       d="m 106.23673,193.87139 c 0,0.33691 -0.26361,0.62568 -0.59911,0.62568 -0.35946,0 -0.62306,-0.28877 -0.62306,-0.62568 0,-0.33689 0.2636,-0.62569 0.62306,-0.62569 0.3355,0 0.59911,0.2888 0.59911,0.62569 z"
       style="fill:#4a99d9;fill-opacity:1;fill-rule:nonzero;stroke:none;stroke-width:0.63500464"
       inkscape:connector-curvature="0" />
    <path
       id="path1238"
       d="m 105.92519,172.71845 c 0,0.33689 -0.28757,0.60162 -0.62306,0.60162 -0.3355,0 -0.5991,-0.26473 -0.5991,-0.60162 0,-0.33692 0.2636,-0.62569 0.5991,-0.62569 0.33549,0 0.62306,0.28877 0.62306,0.62569 z"
       style="fill:#4a99d9;fill-opacity:1;fill-rule:nonzero;stroke:none;stroke-width:0.63500464"
       inkscape:connector-curvature="0" />
    <path
       id="path1240"
       d="m 116.01404,171.22643 c 0,0.36097 -0.26361,0.62568 -0.5991,0.62568 -0.3355,0 -0.62307,-0.26471 -0.62307,-0.62568 0,-0.33692 0.28757,-0.60164 0.62307,-0.60164 0.33549,0 0.5991,0.26472 0.5991,0.60164 z"
       style="fill:#4a99d9;fill-opacity:1;fill-rule:nonzero;stroke:none;stroke-width:0.63500464"
       inkscape:connector-curvature="0" />
    <path
       id="path1242"
       d="m 94.086976,168.94027 c 0,0.33692 -0.287567,0.60161 -0.623064,0.60161 -0.335495,0 -0.623063,-0.26469 -0.623063,-0.60161 0,-0.33692 0.287568,-0.62568 0.623063,-0.62568 0.335497,0 0.623064,0.28876 0.623064,0.62568 z"
       style="fill:#4a99d9;fill-opacity:1;fill-rule:nonzero;stroke:none;stroke-width:0.63500464"
       inkscape:connector-curvature="0" />
    <path
       id="path1244"
       d="m 94.422473,161.91335 c 0,0.33689 -0.263603,0.62569 -0.5991,0.62569 -0.359461,0 -0.623064,-0.2888 -0.623064,-0.62569 0,-0.33691 0.263603,-0.62568 0.623064,-0.62568 0.335497,0 0.5991,0.28877 0.5991,0.62568 z"
       style="fill:#4a99d9;fill-opacity:1;fill-rule:nonzero;stroke:none;stroke-width:0.63500464"
       inkscape:connector-curvature="0" />
    <path
       id="path1246"
       d="m 95.644636,126.20119 c 0,0.36099 -0.287568,0.62568 -0.623064,0.62568 -0.335495,0 -0.623063,-0.26469 -0.623063,-0.62568 0,-0.33692 0.287568,-0.60161 0.623063,-0.60161 0.335496,0 0.623064,0.26469 0.623064,0.60161 z"
       style="fill:#4a99d9;fill-opacity:1;fill-rule:nonzero;stroke:none;stroke-width:0.63500464"
       inkscape:connector-curvature="0" />
    <path
       id="path1248"
       d="m 101.396,125.88834 c 0,0.33692 -0.26361,0.60164 -0.5991,0.60164 -0.35946,0 -0.62307,-0.26472 -0.62307,-0.60164 0,-0.36096 0.26361,-0.62567 0.62307,-0.62567 0.33549,0 0.5991,0.26471 0.5991,0.62567 z"
       style="fill:#4a99d9;fill-opacity:1;fill-rule:nonzero;stroke:none;stroke-width:0.63500464"
       inkscape:connector-curvature="0" />
    <path
       id="path1250"
       d="m 104.17582,128.63173 c 0,0.33692 -0.2636,0.60162 -0.5991,0.60162 -0.35946,0 -0.62306,-0.2647 -0.62306,-0.60162 0,-0.36096 0.2636,-0.62569 0.62306,-0.62569 0.3355,0 0.5991,0.26473 0.5991,0.62569 z"
       style="fill:#4a99d9;fill-opacity:1;fill-rule:nonzero;stroke:none;stroke-width:0.63500464"
       inkscape:connector-curvature="0" />
    <path
       id="path1252"
       d="m 80.020109,118.11544 c 0,0.33688 -0.287568,0.62567 -0.623064,0.62567 -0.335497,0 -0.5991,-0.28879 -0.5991,-0.62567 0,-0.33693 0.263603,-0.62572 0.5991,-0.62572 0.335496,0 0.623064,0.28879 0.623064,0.62572 z"
       style="fill:#4a99d9;fill-opacity:1;fill-rule:nonzero;stroke:none;stroke-width:0.63500464"
       inkscape:connector-curvature="0" />
    <path
       id="path1254"
       d="m 98.376533,108.80235 c 0,0.3369 -0.287568,0.62569 -0.623064,0.62569 -0.335496,0 -0.623064,-0.28879 -0.623064,-0.62569 0,-0.33691 0.287568,-0.60163 0.623064,-0.60163 0.335496,0 0.623064,0.26472 0.623064,0.60163 z"
       style="fill:#4a99d9;fill-opacity:1;fill-rule:nonzero;stroke:none;stroke-width:0.63500464"
       inkscape:connector-curvature="0" />
    <path
       id="path1256"
       d="m 102.90573,108.20072 c 0,0.33691 -0.26361,0.60163 -0.62306,0.60163 -0.3355,0 -0.59911,-0.26472 -0.59911,-0.60163 0,-0.36096 0.26361,-0.62569 0.59911,-0.62569 0.35945,0 0.62306,0.26473 0.62306,0.62569 z"
       style="fill:#4a99d9;fill-opacity:1;fill-rule:nonzero;stroke:none;stroke-width:0.63500464"
       inkscape:connector-curvature="0" />
    <path
       id="path1258"
       d="m 106.26069,107.88788 c 0,0.36099 -0.28757,0.62567 -0.62307,0.62567 -0.33549,0 -0.62306,-0.26468 -0.62306,-0.62567 0,-0.33689 0.28757,-0.60162 0.62306,-0.60162 0.3355,0 0.62307,0.26473 0.62307,0.60162 z"
       style="fill:#4a99d9;fill-opacity:1;fill-rule:nonzero;stroke:none;stroke-width:0.63500464"
       inkscape:connector-curvature="0" />
    <path
       id="path1260"
       d="m 102.69005,102.59363 c 0,0.36096 -0.2636,0.62569 -0.5991,0.62569 -0.35946,0 -0.62306,-0.26473 -0.62306,-0.62569 0,-0.33691 0.2636,-0.60162 0.62306,-0.60162 0.3355,0 0.5991,0.26471 0.5991,0.60162 z"
       style="fill:#4a99d9;fill-opacity:1;fill-rule:nonzero;stroke:none;stroke-width:0.63500464"
       inkscape:connector-curvature="0" />
    <path
       id="path1262"
       d="m 108.29763,100.11497 c 0,0.36096 -0.26361,0.62567 -0.5991,0.62567 -0.35946,0 -0.62306,-0.26471 -0.62306,-0.62567 0,-0.336935 0.2636,-0.601645 0.62306,-0.601645 0.33549,0 0.5991,0.26471 0.5991,0.601645 z"
       style="fill:#4a99d9;fill-opacity:1;fill-rule:nonzero;stroke:none;stroke-width:0.63500464"
       inkscape:connector-curvature="0" />
    <path
       id="path1264"
       d="m 106.69204,97.347495 c 0,0.33692 -0.2636,0.62569 -0.62306,0.62569 -0.3355,0 -0.5991,-0.28877 -0.5991,-0.62569 0,-0.33691 0.2636,-0.62568 0.5991,-0.62568 0.35946,0 0.62306,0.28877 0.62306,0.62568 z"
       style="fill:#4a99d9;fill-opacity:1;fill-rule:nonzero;stroke:none;stroke-width:0.63500464"
       inkscape:connector-curvature="0" />
    <path
       id="path1266"
       d="m 94.925716,98.382295 c 0,0.33688 -0.287568,0.62567 -0.623064,0.62567 -0.335497,0 -0.623064,-0.28879 -0.623064,-0.62567 0,-0.33692 0.287567,-0.6257 0.623064,-0.6257 0.335496,0 0.623064,0.28878 0.623064,0.6257 z"
       style="fill:#4a99d9;fill-opacity:1;fill-rule:nonzero;stroke:none;stroke-width:0.63500464"
       inkscape:connector-curvature="0" />
    <path
       id="path1268"
       d="m 81.122454,105.45733 c 0,0.33691 -0.263604,0.62568 -0.623064,0.62568 -0.335497,0 -0.5991,-0.28877 -0.5991,-0.62568 0,-0.3369 0.263603,-0.60161 0.5991,-0.60161 0.35946,0 0.623064,0.26471 0.623064,0.60161 z"
       style="fill:#4a99d9;fill-opacity:1;fill-rule:nonzero;stroke:none;stroke-width:0.63500464"
       inkscape:connector-curvature="0" />
    <path
       id="path1270"
       d="m 91.11544,95.518565 c 0,0.33692 -0.263603,0.62569 -0.599099,0.62569 -0.35946,0 -0.623064,-0.28877 -0.623064,-0.62569 0,-0.33688 0.263604,-0.60161 0.623064,-0.60161 0.335496,0 0.599099,0.26473 0.599099,0.60161 z"
       style="fill:#4a99d9;fill-opacity:1;fill-rule:nonzero;stroke:none;stroke-width:0.63500464"
       inkscape:connector-curvature="0" />
    <path
       id="path1272"
       d="m 94.94968,82.836425 c 0,0.33691 -0.263603,0.60163 -0.5991,0.60163 -0.335496,0 -0.623064,-0.26472 -0.623064,-0.60163 0,-0.336898 0.287568,-0.625692 0.623064,-0.625692 0.335497,0 0.5991,0.288794 0.5991,0.625692 z"
       style="fill:#4a99d9;fill-opacity:1;fill-rule:nonzero;stroke:none;stroke-width:0.63500464"
       inkscape:connector-curvature="0" />
    <path
       id="path1274"
       d="m 86.610209,85.242915 c 0,0.3369 -0.263604,0.60162 -0.623064,0.60162 -0.335495,0 -0.599099,-0.26472 -0.599099,-0.60162 0,-0.36099 0.263604,-0.62568 0.599099,-0.62568 0.35946,0 0.623064,0.26469 0.623064,0.62568 z"
       style="fill:#4a99d9;fill-opacity:1;fill-rule:nonzero;stroke:none;stroke-width:0.63500464"
       inkscape:connector-curvature="0" />
    <path
       id="path1276"
       d="m 82.464438,86.470225 c 0,0.33691 -0.263607,0.62568 -0.599102,0.62568 -0.359458,0 -0.623064,-0.28877 -0.623064,-0.62568 0,-0.33693 0.263606,-0.62569 0.623064,-0.62569 0.335495,0 0.599102,0.28876 0.599102,0.62569 z"
       style="fill:#4a99d9;fill-opacity:1;fill-rule:nonzero;stroke:none;stroke-width:0.63500464"
       inkscape:connector-curvature="0" />
    <path
       id="path1278"
       d="m 81.529842,91.210975 c 0,0.33691 -0.28757,0.62568 -0.623066,0.62568 -0.335494,0 -0.623063,-0.28877 -0.623063,-0.62568 0,-0.3369 0.287569,-0.62569 0.623063,-0.62569 0.335496,0 0.623066,0.28879 0.623066,0.62569 z"
       style="fill:#4a99d9;fill-opacity:1;fill-rule:nonzero;stroke:none;stroke-width:0.63500464"
       inkscape:connector-curvature="0" />
    <path
       id="path1280"
       d="m 95.932204,79.10638 c 0,0.360962 -0.263603,0.625692 -0.599099,0.625692 -0.335497,0 -0.623065,-0.26473 -0.623065,-0.625692 0,-0.336911 0.287568,-0.6016 0.623065,-0.6016 0.335496,0 0.599099,0.264689 0.599099,0.6016 z"
       style="fill:#4a99d9;fill-opacity:1;fill-rule:nonzero;stroke:none;stroke-width:0.63500464"
       inkscape:connector-curvature="0" />
    <path
       id="path1282"
       d="m 99.311129,73.330844 c 0,0.336911 -0.287568,0.601614 -0.623064,0.601614 -0.335497,0 -0.5991,-0.264703 -0.5991,-0.601614 0,-0.336924 0.263603,-0.625691 0.5991,-0.625691 0.335496,0 0.623064,0.288767 0.623064,0.625691 z"
       style="fill:#4a99d9;fill-opacity:1;fill-rule:nonzero;stroke:none;stroke-width:0.63500464"
       inkscape:connector-curvature="0" />
    <path
       id="path1284"
       d="m 92.721028,73.932458 c 0,0.360976 -0.263604,0.625678 -0.599099,0.625678 -0.359461,0 -0.623064,-0.264702 -0.623064,-0.625678 0,-0.336898 0.263603,-0.601614 0.623064,-0.601614 0.335495,0 0.599099,0.264716 0.599099,0.601614 z"
       style="fill:#4a99d9;fill-opacity:1;fill-rule:nonzero;stroke:none;stroke-width:0.63500464"
       inkscape:connector-curvature="0" />
    <path
       id="path1286"
       d="m 94.086976,73.932458 c 0,0.360976 -0.287567,0.625678 -0.623064,0.625678 -0.335495,0 -0.599102,-0.264702 -0.599102,-0.625678 0,-0.336898 0.263607,-0.601614 0.599102,-0.601614 0.335497,0 0.623064,0.264716 0.623064,0.601614 z"
       style="fill:#4a99d9;fill-opacity:1;fill-rule:nonzero;stroke:none;stroke-width:0.63500464"
       inkscape:connector-curvature="0" />
    <path
       id="path1288"
       d="m 97.178332,76.988681 c 0,0.336911 -0.287569,0.601613 -0.623064,0.601613 -0.335496,0 -0.623064,-0.264702 -0.623064,-0.601613 0,-0.360963 0.287568,-0.625679 0.623064,-0.625679 0.335495,0 0.623064,0.264716 0.623064,0.625679 z"
       style="fill:#4a99d9;fill-opacity:1;fill-rule:nonzero;stroke:none;stroke-width:0.63500464"
       inkscape:connector-curvature="0" />
    <path
       id="path1290"
       d="m 91.091476,79.34703 c 0,0.336925 -0.287567,0.625692 -0.623064,0.625692 -0.335495,0 -0.623064,-0.288767 -0.623064,-0.625692 0,-0.336911 0.287569,-0.625678 0.623064,-0.625678 0.335497,0 0.623064,0.288767 0.623064,0.625678 z"
       style="fill:#4a99d9;fill-opacity:1;fill-rule:nonzero;stroke:none;stroke-width:0.63500464"
       inkscape:connector-curvature="0" />
    <path
       id="path1292"
       d="m 106.52429,59.469514 c 0,0.336911 -0.28756,0.601613 -0.62306,0.601613 -0.3355,0 -0.5991,-0.264702 -0.5991,-0.601613 0,-0.336911 0.2636,-0.625679 0.5991,-0.625679 0.3355,0 0.62306,0.288768 0.62306,0.625679 z"
       style="fill:#4a99d9;fill-opacity:1;fill-rule:nonzero;stroke:none;stroke-width:0.63500464"
       inkscape:connector-curvature="0" />
    <path
       id="path1294"
       d="m 108.36952,60.071127 c 0,0.360989 -0.2636,0.625678 -0.62306,0.625678 -0.3355,0 -0.5991,-0.264689 -0.5991,-0.625678 0,-0.336898 0.2636,-0.601613 0.5991,-0.601613 0.35946,0 0.62306,0.264715 0.62306,0.601613 z"
       style="fill:#4a99d9;fill-opacity:1;fill-rule:nonzero;stroke:none;stroke-width:0.63500464"
       inkscape:connector-curvature="0" />
    <path
       id="path1296"
       d="m 108.60916,58.314404 c 0,0.336897 -0.2636,0.601613 -0.5991,0.601613 -0.35946,0 -0.62306,-0.264716 -0.62306,-0.601613 0,-0.336911 0.2636,-0.625678 0.62306,-0.625678 0.3355,0 0.5991,0.288767 0.5991,0.625678 z"
       style="fill:#4a99d9;fill-opacity:1;fill-rule:nonzero;stroke:none;stroke-width:0.63500464"
       inkscape:connector-curvature="0" />
    <path
       id="path1298"
       d="m 96.651124,61.370641 c 0,0.336883 -0.287568,0.625678 -0.623063,0.625678 -0.335496,0 -0.5991,-0.288795 -0.5991,-0.625678 0,-0.336911 0.263604,-0.625692 0.5991,-0.625692 0.335495,0 0.623063,0.288781 0.623063,0.625692 z"
       style="fill:#4a99d9;fill-opacity:1;fill-rule:nonzero;stroke:none;stroke-width:0.63500464"
       inkscape:connector-curvature="0" />
    <path
       id="path1300"
       d="m 98.472389,62.958894 c 0,0.336925 -0.263605,0.625692 -0.599102,0.625692 -0.359457,0 -0.623063,-0.288767 -0.623063,-0.625692 0,-0.336883 0.263606,-0.601613 0.623063,-0.601613 0.335497,0 0.599102,0.26473 0.599102,0.601613 z"
       style="fill:#4a99d9;fill-opacity:1;fill-rule:nonzero;stroke:none;stroke-width:0.63500464"
       inkscape:connector-curvature="0" />
    <path
       id="path1302"
       d="m 96.219772,64.210264 c 0,0.336925 -0.263603,0.601641 -0.5991,0.601641 -0.35946,0 -0.623064,-0.264716 -0.623064,-0.601641 0,-0.360962 0.263604,-0.625678 0.623064,-0.625678 0.335497,0 0.5991,0.264716 0.5991,0.625678 z"
       style="fill:#4a99d9;fill-opacity:1;fill-rule:nonzero;stroke:none;stroke-width:0.63500464"
       inkscape:connector-curvature="0" />
    <path
       id="path1304"
       d="m 94.494365,64.210264 c 0,0.336925 -0.263603,0.601641 -0.599099,0.601641 -0.335496,0 -0.623064,-0.264716 -0.623064,-0.601641 0,-0.360962 0.287568,-0.625678 0.623064,-0.625678 0.335496,0 0.599099,0.264716 0.599099,0.625678 z"
       style="fill:#4a99d9;fill-opacity:1;fill-rule:nonzero;stroke:none;stroke-width:0.63500464"
       inkscape:connector-curvature="0" />
    <path
       id="path1306"
       d="m 91.331116,66.688953 c 0,0.336897 -0.263603,0.625692 -0.5991,0.625692 -0.335496,0 -0.623064,-0.288795 -0.623064,-0.625692 0,-0.336911 0.287568,-0.625678 0.623064,-0.625678 0.335497,0 0.5991,0.288767 0.5991,0.625678 z"
       style="fill:#4a99d9;fill-opacity:1;fill-rule:nonzero;stroke:none;stroke-width:0.63500464"
       inkscape:connector-curvature="0" />
    <path
       id="path1308"
       d="m 86.082999,62.357281 c 0,0.336925 -0.263604,0.601613 -0.599099,0.601613 -0.335496,0 -0.623064,-0.264688 -0.623064,-0.601613 0,-0.360962 0.287568,-0.625678 0.623064,-0.625678 0.335495,0 0.599099,0.264716 0.599099,0.625678 z"
       style="fill:#4a99d9;fill-opacity:1;fill-rule:nonzero;stroke:none;stroke-width:0.63500464"
       inkscape:connector-curvature="0" />
    <path
       id="path1310"
       d="m 98.472389,64.330603 c 0,0.360963 -0.263605,0.625692 -0.599102,0.625692 -0.359457,0 -0.623063,-0.264729 -0.623063,-0.625692 0,-0.336911 0.263606,-0.601613 0.623063,-0.601613 0.335497,0 0.599102,0.264702 0.599102,0.601613 z"
       style="fill:#4a99d9;fill-opacity:1;fill-rule:nonzero;stroke:none;stroke-width:0.63500464"
       inkscape:connector-curvature="0" />
    <path
       id="path1312"
       d="m 99.718518,69.624851 c 0,0.336911 -0.287568,0.60164 -0.623066,0.60164 -0.335497,0 -0.623063,-0.264729 -0.623063,-0.60164 0,-0.336884 0.287566,-0.625678 0.623063,-0.625678 0.335498,0 0.623066,0.288794 0.623066,0.625678 z"
       style="fill:#4a99d9;fill-opacity:1;fill-rule:nonzero;stroke:none;stroke-width:0.63500464"
       inkscape:connector-curvature="0" />
    <path
       id="path1314"
       d="m 101.77942,69.98584 c 0,0.336884 -0.2636,0.625679 -0.5991,0.625679 -0.3355,0 -0.62306,-0.288795 -0.62306,-0.625679 0,-0.336911 0.28756,-0.625691 0.62306,-0.625691 0.3355,0 0.5991,0.28878 0.5991,0.625691 z"
       style="fill:#4a99d9;fill-opacity:1;fill-rule:nonzero;stroke:none;stroke-width:0.63500464"
       inkscape:connector-curvature="0" />
    <path
       id="path1316"
       d="m 103.1933,68.63821 c 0,0.336911 -0.28757,0.625678 -0.62307,0.625678 -0.33549,0 -0.62306,-0.288767 -0.62306,-0.625678 0,-0.336924 0.28757,-0.625692 0.62306,-0.625692 0.3355,0 0.62307,0.288768 0.62307,0.625692 z"
       style="fill:#4a99d9;fill-opacity:1;fill-rule:nonzero;stroke:none;stroke-width:0.63500464"
       inkscape:connector-curvature="0" />
    <path
       id="path1318"
       d="m 99.718518,68.517871 c 0,0.336911 -0.287568,0.625678 -0.623066,0.625678 -0.335497,0 -0.623063,-0.288767 -0.623063,-0.625678 0,-0.336897 0.287566,-0.601613 0.623063,-0.601613 0.335498,0 0.623066,0.264716 0.623066,0.601613 z"
       style="fill:#4a99d9;fill-opacity:1;fill-rule:nonzero;stroke:none;stroke-width:0.63500464"
       inkscape:connector-curvature="0" />
    <path
       id="path1320"
       d="m 107.07547,58.145948 c 0,0.336925 -0.28757,0.601613 -0.62307,0.601613 -0.33549,0 -0.62306,-0.264688 -0.62306,-0.601613 0,-0.360962 0.28757,-0.625678 0.62306,-0.625678 0.3355,0 0.62307,0.264716 0.62307,0.625678 z"
       style="fill:#4a99d9;fill-opacity:1;fill-rule:nonzero;stroke:none;stroke-width:0.63500464"
       inkscape:connector-curvature="0" />
  </g>
</svg>
